<svg t="1739411886553" class="icon" viewBox="0 0 1024 1024" version="1.1" xmlns="http://www.w3.org/2000/svg" p-id="6087" width="200" height="200"><path d="M505.291269 1010.659298c278.840892 0 505.4307-226.79194 505.4307-505.329634 0-278.739826-226.79194-505.329634-505.329634-505.329634-278.537694-0.101066-505.329634 226.589808-505.329634 505.329634 0 278.63876 226.589808 505.329634 505.228568 505.329634" fill="#409eff" p-id="6088"></path><path d="M666.491422 541.208068c-7.984208 0-14.351362-6.468219-14.351361-14.452428s6.468219-14.351362 14.351361-14.351361c64.884325 0 117.539673-52.655348 117.539673-117.539673s-52.554282-117.640739-117.539673-117.640739c-7.984208 0-14.351362-6.468219-14.351361-14.351361s6.468219-14.351362 14.351361-14.351362c80.852741 0 146.343462 65.490721 146.343462 146.343462 0.101066 80.751675-65.490721 146.343462-146.343462 146.343462 0.101066 0 0 0 0 0zM344.293248 767.393612c-80.852741 0-146.343462-65.490721-146.343462-146.343462S263.440507 474.706688 344.293248 474.706688c7.984208 0 14.351362 6.468219 14.351361 14.351362 0 7.984208-6.468219 14.351362-14.351361 14.351361-64.884325 0-117.539673 52.655348-117.539673 117.539673S279.408923 738.488757 344.293248 738.488757c7.984208 0 14.351362 6.468219 14.351361 14.452427s-6.468219 14.452428-14.351361 14.452428zM567.54788 343.118852H444.045318c-35.069877-0.101066-63.469402-28.500591-63.570468-63.570468v-3.73944c0.101066-35.069877 28.500591-63.570468 63.671534-63.570468h123.401496c35.069877 0.101066 63.570468 28.500591 63.570468 63.671534v3.73944c-0.101066 35.069877-28.500591 63.368336-63.570468 63.469402zM444.045318 240.9412c-19.202526 0.101066-34.766679 15.665219-34.766679 34.867744v3.73944c0 19.202526 15.564153 34.867745 34.867745 34.867744h123.401496c19.202526-0.101066 34.665613-15.564153 34.766679-34.766678v-3.73944c0.101066-19.202526-15.463087-34.867745-34.766679-34.96881H444.045318z m123.502562 329.879185H444.045318c-35.069877-0.101066-63.469402-28.500591-63.570468-63.570468v-3.73944c0.101066-35.069877 28.500591-63.570468 63.671534-63.570468h123.401496c35.069877 0.101066 63.570468 28.500591 63.570468 63.671534v3.73944c-0.101066 35.069877-28.500591 63.469402-63.570468 63.469402z m-123.502562-102.076586c-19.202526 0.101066-34.766679 15.665219-34.766679 34.867744v3.73944c0 19.202526 15.564153 34.867745 34.867745 34.867744h123.401496c19.202526-0.101066 34.665613-15.564153 34.766679-34.766679v-3.739439c0.101066-19.202526-15.463087-34.867745-34.766679-34.96881H444.045318z m123.502562 329.677053H444.045318c-35.069877-0.101066-63.469402-28.500591-63.570468-63.570468v-3.73944c0.101066-35.069877 28.500591-63.570468 63.671534-63.570468h123.401496c35.069877 0.101066 63.570468 28.500591 63.570468 63.671534v3.73944c-0.101066 35.069877-28.500591 63.469402-63.570468 63.469402z m-123.502562-102.076586c-19.202526 0.101066-34.766679 15.665219-34.766679 34.867744v3.73944c0 19.202526 15.564153 34.867745 34.867745 34.867744h123.401496c19.202526-0.101066 34.665613-15.564153 34.766679-34.766679v-3.739439c0.101066-19.202526-15.463087-34.867745-34.766679-34.96881H444.045318z" fill="#FFFFFF" p-id="6089"></path><path d="M666.491422 541.208068c-7.984208 0-14.351362-6.468219-14.351361-14.452428 0-1.617055 0.303198-3.23411 0.808527-4.750098l17.484405-48.713777c2.122384-7.68101 10.005527-12.127911 17.686538-10.106592s12.127911 10.005527 10.106592 17.686537c-0.202132 0.707461-0.404264 1.313857-0.707461 2.021318l-17.484405 48.713777c-2.021319 5.659692-7.377813 9.500197-13.542835 9.601263zM338.02716 757.691283c-6.063956 0-11.521516-3.840505-13.542834-9.601263l-17.484405-48.713777c-2.122384-7.68101 2.425582-15.564153 10.106593-17.686537 6.872483-1.920253 14.14923 1.515989 16.979075 8.085274l17.484406 48.713777c2.627714 7.478879-1.313857 15.766285-8.792736 18.393999-1.515989 0.50533-3.133044 0.808527-4.750099 0.808527z" fill="#FFFFFF" p-id="6090"></path></svg>