<?xml version="1.0" standalone="no"?><!DOCTYPE svg PUBLIC "-//W3C//DTD SVG 1.1//EN" "http://www.w3.org/Graphics/SVG/1.1/DTD/svg11.dtd"><svg t="1752416202475" class="icon" viewBox="0 0 1024 1024" version="1.1" xmlns="http://www.w3.org/2000/svg" p-id="7353" xmlns:xlink="http://www.w3.org/1999/xlink" width="200" height="200"><path d="M-29.936364 512.730938m53.099006-53.099005l335.489169-335.489169q53.099005-53.099005 106.19801 0l334.765092 334.765092q53.099005 53.099005 0 106.19801l-335.489169 335.48917q-53.099005 53.099005-106.19801 0l-334.765092-334.765092q-53.099005-53.099005 0-106.198011Z" fill="#1ED29A" p-id="7354"></path><path d="M1003.52 457.386667l-334.506667-334.506667a81.92 81.92 0 0 0-109.226666 0l-10.24 13.653333 23.893333 23.893334 10.24-10.24a40.96 40.96 0 0 1 61.44 0l331.093333 331.093333a40.96 40.96 0 0 1 0 61.44l-331.093333 331.093333a40.96 40.96 0 0 1-61.44 0l-10.24-10.24-23.893333 23.893334 10.24 13.653333a81.92 81.92 0 0 0 109.226666 0l334.506667-334.506667a81.92 81.92 0 0 0 0-109.226666z" fill="#1ED29A" p-id="7355"></path></svg>