<?xml version="1.0" standalone="no"?><!DOCTYPE svg PUBLIC "-//W3C//DTD SVG 1.1//EN" "http://www.w3.org/Graphics/SVG/1.1/DTD/svg11.dtd"><svg t="1752416562815" class="icon" viewBox="0 0 1024 1024" version="1.1" xmlns="http://www.w3.org/2000/svg" p-id="36832" xmlns:xlink="http://www.w3.org/1999/xlink" width="200" height="200"><path d="M813.888 82.048H210.112a128 128 0 0 0-128 128l-0.064 603.904a128 128 0 0 0 128 128h603.84a128 128 0 0 0 128-128V210.048a128 128 0 0 0-128-128z m9.216 430.208q0 128.704-91.072 219.776Q640.896 823.168 512 823.168q-128.896 0-220.032-91.136Q200.96 640.96 200.96 512.192V512q0-128.896 91.072-220.032Q383.104 200.96 512 200.96q128.896 0 220.032 91.136 91.072 91.136 91.072 220.032v0.192zM451.2 316.16Q479.36 245.76 512 245.696h0.128q32.64 0.128 60.8 70.528 11.52 28.8 18.88 62.08Q553.92 374.208 512 374.208q-41.92 0-79.808 4.096 7.424-33.28 18.944-62.08zM299.52 409.6q-23.68 9.472-41.664 20.288 18.56-59.008 65.792-106.24 47.232-47.168 106.24-65.792-10.88 17.92-20.352 41.6-15.744 39.36-24.448 85.696-46.272 8.704-85.568 24.448z m314.944-110.08q-9.472-23.68-20.288-41.664 59.008 18.624 106.112 65.792 47.232 47.232 65.92 106.24-18.048-10.88-41.728-20.288-39.296-15.744-85.504-24.448-8.768-46.336-24.512-85.632zM424.32 599.936Q418.944 558.848 418.944 512q0-46.72 5.248-87.68Q465.28 418.944 512 418.944q46.72 0 87.808 5.312 5.312 40.96 5.312 87.68 0 46.848-5.312 87.936-41.088 5.248-87.808 5.248-46.72 0-87.744-5.248zM316.16 572.992q-70.4-28.16-70.464-60.8v-0.128q0-32.64 70.464-60.8 28.8-11.52 62.016-18.944-4.032 37.824-4.032 79.744t4.032 79.808q-33.28-7.36-62.016-18.88z m391.68-121.728q70.4 28.16 70.464 60.8v0.064q0 32.64-70.464 60.8-28.8 11.52-62.016 18.944 4.096-37.888 4.096-79.808 0-41.92-4.032-79.744 33.152 7.424 61.952 18.944z m-7.552 249.088q-47.104 47.168-106.112 65.792 10.88-17.92 20.288-41.6 15.744-39.296 24.448-85.504 46.272-8.768 85.568-24.448 23.68-9.472 41.6-20.288-18.624 58.88-65.792 106.048z m-290.752 24.192q9.472 23.68 20.288 41.6-58.944-18.56-106.176-65.792-47.104-47.104-65.728-106.048 17.92 10.816 41.6 20.288 39.296 15.68 85.568 24.448 8.768 46.208 24.448 85.504z m163.328-16.64q-28.16 70.336-60.736 70.4H512q-32.64 0-60.8-70.4-11.52-28.8-18.944-61.952 37.824 4.032 79.744 4.032t79.808-4.032q-7.424 33.152-18.944 61.952z" fill="#03C07C" p-id="36833"></path></svg>