<?xml version="1.0" standalone="no"?><!DOCTYPE svg PUBLIC "-//W3C//DTD SVG 1.1//EN" "http://www.w3.org/Graphics/SVG/1.1/DTD/svg11.dtd"><svg t="1732117152792" class="icon" viewBox="0 0 1024 1024" version="1.1" xmlns="http://www.w3.org/2000/svg" p-id="4725" xmlns:xlink="http://www.w3.org/1999/xlink" width="200" height="200"><path d="M546.315378 66.395022c5.296356 21.105778 8.112356 43.201422 8.112355 65.951289 0 75.872711-31.277511 144.4352-81.635555 193.513245 50.761956-19.825778 106.001067-30.72 163.7888-30.72 121.742222 0 232.197689 48.315733 313.252978 126.805333-39.446756-192.768-202.996622-340.3264-403.518578-355.549867zM102.661689 332.379022C78.506667 387.350756 65.092267 448.108089 65.092267 512c0 122.020978 48.907378 232.618667 128.182044 313.264356-4.630756-25.895822-7.048533-52.559644-7.048533-79.786667 0-142.916267 66.577067-270.279111 170.404978-352.779378-23.034311 6.388622-47.3088 9.807644-72.379734 9.807645-69.905067 0.005689-133.620622-26.550044-181.589333-70.126934z" fill="#E148ED" p-id="4726"></path><path d="M512 958.907733c246.818133 0 446.907733-200.083911 446.907733-446.902044 0-30.850844-3.1232-60.967822-9.079466-90.055111-81.055289-78.495289-191.510756-126.805333-313.252978-126.805334-57.782044 0-113.026844 10.888533-163.7888 30.72 50.363733-49.072356 81.635556-117.640533 81.635555-193.513244 0-22.749867-2.816-44.839822-8.112355-65.951289a453.639396 453.639396 0 0 0-34.315378-1.297067c-182.926222 0-340.178489 109.903644-409.338311 267.286756 47.9744 43.576889 111.684267 70.132622 181.595022 70.132622 25.070933 0 49.345422-3.419022 72.379734-9.807644-103.827911 82.500267-170.404978 209.863111-170.404978 352.779378 0 27.227022 2.417778 53.890844 7.048533 79.786666 81.083733 82.466133 193.928533 133.626311 318.725689 133.626311z" fill="#E765F1" p-id="4727"></path><path d="M261.063111 201.5232l15.746845-53.845333 15.746844 53.845333 53.845333 15.746844-53.845333 15.746845-15.746844 53.845333-15.746845-53.845333-53.845333-15.746845z" fill="#EBA9F7" opacity=".6" p-id="4728"></path><path d="M682.012444 772.278044l19.882667-67.987911 19.882667 67.987911 67.987911 19.882667-67.987911 19.882667-19.882667 67.987911-19.882667-67.987911-67.987911-19.882667zM322.349511 334.307556l9.739378-33.297067 9.733689 33.297067 33.297066 9.733688-33.297066 9.739378-9.733689 33.291378-9.739378-33.291378-33.291378-9.739378z" fill="#EBA9F7" p-id="4729"></path><path d="M690.221511 438.198044h-35.987911V380.9792c0-78.222222-64-142.222222-142.222222-142.222222s-142.222222 64-142.222222 142.222222v57.213156h-36.004978c-31.408356 0-57.099378 25.696711-57.099378 57.099377v232.840534c0 31.408356 25.696711 57.099378 57.099378 57.099377h356.437333c31.408356 0 57.099378-25.696711 57.099378-57.099377V495.297422c0-31.408356-25.696711-57.099378-57.099378-57.099378z m-138.387911 184.593067v63.6928c0 21.896533-17.914311 39.810844-39.810844 39.810845H512c-21.896533 0-39.810844-17.914311-39.810844-39.810845v-63.6928c-17.225956-12.3904-28.444444-32.608711-28.444445-55.4496 0-37.700267 30.5664-68.266667 68.266667-68.266667 37.700267 0 68.266667 30.5664 68.266666 68.266667 0 22.840889-11.218489 43.0592-28.444444 55.4496z m79.644444-184.593067h-238.933333V380.9792c0-65.706667 53.76-119.466667 119.466667-119.466667s119.466667 53.76 119.466666 119.466667v57.218844z" fill="#FFFFFF" p-id="4730"></path></svg>