<?xml version="1.0" standalone="no"?><!DOCTYPE svg PUBLIC "-//W3C//DTD SVG 1.1//EN" "http://www.w3.org/Graphics/SVG/1.1/DTD/svg11.dtd"><svg t="1732706166792" class="icon" viewBox="0 0 1024 1024" version="1.1" xmlns="http://www.w3.org/2000/svg" p-id="996" xmlns:xlink="http://www.w3.org/1999/xlink" width="200" height="200"><path d="M515.3792 510.6176m-453.5808 0a453.5808 453.5808 0 1 0 907.1616 0 453.5808 453.5808 0 1 0-907.1616 0Z" fill="#73DDDE" p-id="997"></path><path d="M968.4992 530.7904l-216.7808-243.6608-90.624-18.5856-39.424-35.3792L408.1152 296.96l34.048 65.1776-107.8272 36.8128-47.6672 368.64L410.9312 952.32a453.9904 453.9904 0 0 0 557.568-421.3248z" fill="#4ACED1" p-id="998"></path><path d="M404.0192 226.3552m23.296 0l177.8688 0q23.296 0 23.296 23.296l0 34.304q0 23.296-23.296 23.296l-177.8688 0q-23.296 0-23.296-23.296l0-34.304q0-23.296 23.296-23.296Z" fill="#FFFFFF" p-id="999"></path><path d="M709.9392 268.544h-48.8448v30.0032a38.1952 38.1952 0 0 1-38.1952 38.1952H409.6a38.1952 38.1952 0 0 1-38.1952-38.1952v-30.0032h-44.288a56.32 56.32 0 0 0-56.32 56.32v403.3536a56.32 56.32 0 0 0 56.32 56.32h382.8224a56.32 56.32 0 0 0 56.32-56.32V324.9152a56.32 56.32 0 0 0-56.32-56.3712z m-218.0096 338.5344l-66.56 67.5328a20.48 20.48 0 0 1-28.8768 0.256l-36.3008-35.4816a20.48 20.48 0 1 1 28.6208-29.2864l21.7088 21.248L462.7968 578.56a20.48 20.48 0 0 1 29.1328 28.7744z m0-160.6656l-66.56 67.5328a20.48 20.48 0 0 1-28.8768 0.256l-36.4032-35.4816a20.48 20.48 0 1 1 28.6208-29.2864l21.7088 21.248 52.3776-53.0432a20.48 20.48 0 0 1 29.1328 28.7744z m167.0144 210.3808h-103.5776a20.48 20.48 0 0 1 0-40.96h103.5776a20.48 20.48 0 0 1 0 40.96z m0-160.6656h-103.5776a20.48 20.48 0 0 1 0-40.96h103.5776a20.48 20.48 0 0 1 0 40.96z" fill="#FFFFFF" p-id="1000"></path></svg>