<?xml version="1.0" standalone="no"?><!DOCTYPE svg PUBLIC "-//W3C//DTD SVG 1.1//EN" "http://www.w3.org/Graphics/SVG/1.1/DTD/svg11.dtd"><svg t="1732706182114" class="icon" viewBox="0 0 1024 1024" version="1.1" xmlns="http://www.w3.org/2000/svg" p-id="1167" xmlns:xlink="http://www.w3.org/1999/xlink" width="200" height="200"><path d="M516.5568 507.6992m-453.5808 0a453.5808 453.5808 0 1 0 907.1616 0 453.5808 453.5808 0 1 0-907.1616 0Z" fill="#D480F1" p-id="1168"></path><path d="M970.1376 507.6992c0-8.5504 0-16.9984-0.7168-25.6l-136.2432-129.5872L778.24 418.8672 537.6 235.52 432.128 501.76 251.1872 349.4912 196.1472 407.552l134.9632 219.392-23.9104 41.7792 42.0864 50.176-46.7456 33.1776 121.7536 199.68a453.9392 453.9392 0 0 0 545.8432-444.0576z" fill="#A861E0" p-id="1169"></path><path d="M805.0176 342.6816A40.1408 40.1408 0 0 0 771.1232 404.48l-130.048 80.7936-102.912-183.552a40.2432 40.2432 0 1 0-46.592 0L391.7824 488.3456 259.84 408.0128a40.192 40.192 0 1 0-31.3856 15.36 38.3488 38.3488 0 0 0 5.9904-0.512L307.2 668.7232h415.6416l72.3968-246.8352a40.96 40.96 0 0 0 9.7792 1.2288 40.2432 40.2432 0 1 0 0-80.4352z" fill="#FFFFFF" p-id="1170"></path><path d="M299.776 710.7584m28.5184 0l372.0192 0q28.5184 0 28.5184 28.5184l0 1.4848q0 28.5184-28.5184 28.5184l-372.0192 0q-28.5184 0-28.5184-28.5184l0-1.4848q0-28.5184 28.5184-28.5184Z" fill="#FFFFFF" p-id="1171"></path></svg>