<?xml version="1.0" standalone="no"?><!DOCTYPE svg PUBLIC "-//W3C//DTD SVG 1.1//EN" "http://www.w3.org/Graphics/SVG/1.1/DTD/svg11.dtd"><svg t="1732706189092" class="icon" viewBox="0 0 1024 1024" version="1.1" xmlns="http://www.w3.org/2000/svg" p-id="1338" xmlns:xlink="http://www.w3.org/1999/xlink" width="200" height="200"><path d="M517.12 506.7264m-453.5808 0a453.5808 453.5808 0 1 0 907.1616 0 453.5808 453.5808 0 1 0-907.1616 0Z" fill="#F4673D" p-id="1339"></path><path d="M964.4032 582.2976l-226.7648-211.2512-20.48 12.1856-136.2432-113.3568L394.24 478.0032l-120.2176 182.8352 122.5216 283.2384c4.7616 1.3312 9.5744 2.56 14.3872 3.6864 9.5232 2.304 19.2 4.3008 28.928 5.9392l1.3824 0.256c4.3008 0.7168 8.5504 1.3824 12.8512 1.9456l2.0992 0.3072c9.3696 1.28 18.8416 2.2016 28.3648 2.9184h3.584l10.752 0.5632h18.0224a453.632 453.632 0 0 0 447.488-377.3952z" fill="#E7390F" p-id="1340"></path><path d="M334.4384 513.8432s-16.1792-96.1024 77.2096-175.104c25.1392-17.9712 43.1104-98.816 37.7344-133.8368 53.8624 15.36 193.9456 51.2 203.8272 231.68 20.48-62.8224 84.4288-65.536 84.4288-65.536a304.896 304.896 0 0 0 26.9312 149.9648c35.84 78.1312 26.0608 261.12-141.8752 291.84 12.544-82.5856 51.2-139.1616-84.4288-245.76-35.0208 63.744-32.3072 66.56-67.328 109.5168s-25.1392 129.3312-2.7136 146.3808c-87.04-12.544-282.88-114.944-166.144-365.4656 22.4768 14.08 32.3584 56.32 32.3584 56.32z" fill="#FFFFFF" p-id="1341"></path></svg>