<?xml version="1.0" standalone="no"?><!DOCTYPE svg PUBLIC "-//W3C//DTD SVG 1.1//EN" "http://www.w3.org/Graphics/SVG/1.1/DTD/svg11.dtd"><svg t="1732706197701" class="icon" viewBox="0 0 1024 1024" version="1.1" xmlns="http://www.w3.org/2000/svg" p-id="1508" xmlns:xlink="http://www.w3.org/1999/xlink" width="200" height="200"><path d="M512 506.7264m-453.5808 0a453.5808 453.5808 0 1 0 907.1616 0 453.5808 453.5808 0 1 0-907.1616 0Z" fill="#FA75AA" p-id="1509"></path><path d="M965.5808 506.88c0-7.5264 0-15.0016-0.5632-22.4256L735.4368 278.016H414.2592l-117.76 143.0016V732.16L404.48 947.5072A453.9392 453.9392 0 0 0 965.5808 506.88z" fill="#E84F94" p-id="1510"></path><path d="M776.448 412.6208a31.2832 31.2832 0 0 1-14.7456-35.5328 102.0928 102.0928 0 0 0-125.3376-125.3888 31.2832 31.2832 0 0 1-35.5328-14.6944 102.4 102.4 0 0 0-177.664 0 31.2832 31.2832 0 0 1-35.5328 14.6944 102.0928 102.0928 0 0 0-125.3376 125.3888 31.2832 31.2832 0 0 1-14.7456 35.5328 102.4 102.4 0 0 0 0 177.6128 31.2832 31.2832 0 0 1 14.7456 35.5328 101.9904 101.9904 0 0 0 26.2656 99.1232 101.9904 101.9904 0 0 0 99.072 26.2656 31.232 31.232 0 0 1 35.5328 14.7456 102.4 102.4 0 0 0 177.664 0 31.232 31.232 0 0 1 35.5328-14.7456 101.9904 101.9904 0 0 0 99.072-26.2656 101.9904 101.9904 0 0 0 26.2656-99.1232 31.2832 31.2832 0 0 1 14.7456-35.5328 102.4 102.4 0 0 0 0-177.6128zM360.96 421.0176a40.1408 40.1408 0 1 1 40.0896 40.1408 40.1408 40.1408 0 0 1-40.0896-40.1408z m81.92 230.4a23.04 23.04 0 1 1-38.8608-24.7808l176.5376-277.1968a23.04 23.04 0 1 1 38.9632 24.576z m180.4288-40.96a40.1408 40.1408 0 1 1 40.1408-40.1408 40.1408 40.1408 0 0 1-39.9872 39.936z" fill="#FFFFFF" p-id="1511"></path></svg>