<?xml version="1.0" standalone="no"?><!DOCTYPE svg PUBLIC "-//W3C//DTD SVG 1.1//EN" "http://www.w3.org/Graphics/SVG/1.1/DTD/svg11.dtd"><svg t="1732706207327" class="icon" viewBox="0 0 1024 1024" version="1.1" xmlns="http://www.w3.org/2000/svg" p-id="1676" xmlns:xlink="http://www.w3.org/1999/xlink" width="200" height="200"><path d="M507.2896 506.7264m-453.5808 0a453.5808 453.5808 0 1 0 907.1616 0 453.5808 453.5808 0 1 0-907.1616 0Z" fill="#F69360" p-id="1677"></path><path d="M959.3856 543.488L629.1968 260.096l-219.2896 15.9744-32.0512 130.048-100.6592 18.3296-3.7376 331.8784 159.6416 197.9392a459.5712 459.5712 0 0 0 74.1888 6.0416 453.632 453.632 0 0 0 452.096-416.8192z" fill="#F4683D" p-id="1678"></path><path d="M732.672 370.688h-85.2992V299.3152c0-31.3344-29.3376-56.7808-65.4848-56.7808h-148.48c-35.84 0-65.4848 25.6-65.4848 56.7808V370.688H282.88a55.0912 55.0912 0 0 0-54.8352 60.4672L256.768 721.92a55.1424 55.1424 0 0 0 54.8352 49.664h395.52a55.0912 55.0912 0 0 0 54.8864-50.2784l25.6-290.8672A55.04 55.04 0 0 0 732.672 370.688z m-299.0592-76.8h148.48a17.152 17.152 0 0 1 14.2848 5.5808V370.688H419.328V299.52a16.5376 16.5376 0 0 1 14.2848-5.7856z m162.56 346.112H419.328a20.48 20.48 0 0 1 0-40.96h176.8448a20.48 20.48 0 0 1 0 40.96z m0-117.76H419.328a20.48 20.48 0 0 1 0-40.96h176.8448a20.48 20.48 0 0 1 0 40.96z" fill="#FFFFFF" p-id="1679"></path></svg>