<?xml version="1.0" standalone="no"?><!DOCTYPE svg PUBLIC "-//W3C//DTD SVG 1.1//EN" "http://www.w3.org/Graphics/SVG/1.1/DTD/svg11.dtd"><svg t="1732706221101" class="icon" viewBox="0 0 1024 1024" version="1.1" xmlns="http://www.w3.org/2000/svg" p-id="2016" xmlns:xlink="http://www.w3.org/1999/xlink" width="200" height="200"><path d="M517.12 510.6176m-453.5808 0a453.5808 453.5808 0 1 0 907.1616 0 453.5808 453.5808 0 1 0-907.1616 0Z" fill="#D480F1" p-id="2017"></path><path d="M964.096 588.1344L819.2 428.4416l-185.5488-25.6-73.216-87.3472L416.768 419.84l-205.312 50.2784 134.7072 254.464-21.8624 68.7104 92.6208 159.7952a454.0928 454.0928 0 0 0 547.1744-364.9536z" fill="#A861E0" p-id="2018"></path><path d="M809.6256 490.8544a52.6336 52.6336 0 0 0-29.184-89.7536l-121.9584-17.7152a52.6336 52.6336 0 0 1-39.6288-28.8256l-54.528-110.4896a52.6336 52.6336 0 0 0-94.4128 0L415.3856 354.56a52.6336 52.6336 0 0 1-39.6288 28.8256l-121.9584 17.7152a52.6336 52.6336 0 0 0-29.184 89.7536l88.2688 86.016a52.6848 52.6848 0 0 1 15.36 46.592L307.2 744.9088a52.6336 52.6336 0 0 0 76.3392 55.5008l109.1072-57.344a52.3776 52.3776 0 0 1 48.9472 0l109.1072 57.344A52.6336 52.6336 0 0 0 727.04 744.9088l-20.8384-121.4464a52.6848 52.6848 0 0 1 15.36-46.592z m-129.7408-43.1104a20.48 20.48 0 0 1-20.224 17.3568 22.1184 22.1184 0 0 1-3.1744 0l-55.04-8.5504a47.4112 47.4112 0 0 1-35.1744-25.6l-29.7984-60.4672a20.48 20.48 0 1 1 36.9664-18.5856l29.8496 60.4672a6.5024 6.5024 0 0 0 4.7104 3.4816l55.04 8.5504a20.48 20.48 0 0 1 16.8448 23.3472z" fill="#FFFFFF" p-id="2019"></path></svg>