<?xml version="1.0" standalone="no"?><!DOCTYPE svg PUBLIC "-//W3C//DTD SVG 1.1//EN" "http://www.w3.org/Graphics/SVG/1.1/DTD/svg11.dtd"><svg t="1732706228759" class="icon" viewBox="0 0 1024 1024" version="1.1" xmlns="http://www.w3.org/2000/svg" p-id="2184" xmlns:xlink="http://www.w3.org/1999/xlink" width="200" height="200"><path d="M517.12 506.7264m-453.5808 0a453.5808 453.5808 0 1 0 907.1616 0 453.5808 453.5808 0 1 0-907.1616 0Z" fill="#72DB86" p-id="2185"></path><path d="M859.648 515.0208L391.7824 278.016 220.16 338.5856l10.8544 210.2272 5.5296 13.1072 191.8464 389.6832a454.2976 454.2976 0 0 0 528.5888-332.8z" fill="#52C181" p-id="2186"></path><path d="M853.4016 510.1568L430.7968 263.936a33.5872 33.5872 0 0 0-26.3168-3.4304L217.7024 314.368a33.4336 33.4336 0 0 0-23.6032 38.3488l36.7104 196.096a33.7408 33.7408 0 0 0 15.6672 22.5792l422.2464 245.76a33.5872 33.5872 0 0 0 46.08-11.4688l150.1184-249.7536a33.4848 33.4848 0 0 0-11.52-45.7728z m-472.6784 36.7616a18.8928 18.8928 0 0 1-4.4544 0.512 19.8656 19.8656 0 0 1-10.9056-3.2768l-13.8752-9.2672a19.7632 19.7632 0 0 1-8.7552-17.7664l8.192-127.2832-54.3744 93.7472a19.6608 19.6608 0 0 1-34.048-19.7632l78.848-135.7824A19.6096 19.6096 0 0 1 368.64 321.2288l15.36 9.2672a19.7632 19.7632 0 0 1 9.2672 17.9712l-8.0384 125.44L439.296 381.0304a19.712 19.712 0 1 1 33.9968 19.8656L393.2672 537.6a19.6096 19.6096 0 0 1-12.544 9.3184z m134.8096 45.3632a19.6608 19.6608 0 0 1-10.8544 35.84 19.0976 19.0976 0 0 1-10.8032-3.2768l-77.4656-51.2a19.6608 19.6608 0 0 1-6.0416-26.5216L492.032 411.2896a19.6096 19.6096 0 0 1 26.9824-6.8096L588.8 446.2592a19.712 19.712 0 0 1-20.48 33.792l-52.7872-31.6928-18.6368 31.0272 47.2064 33.2288a19.6608 19.6608 0 0 1-22.6816 32.1536l-44.8-31.5392-22.9376 38.2976z m256.512 0.6144L675.84 704.4608a19.7632 19.7632 0 0 1-25.6 3.6864l-16.2816-10.5472a19.712 19.712 0 0 1-8.0384-22.6816l25.6-78.08-56.7296 61.0816a19.712 19.712 0 0 1-26.0608 2.5088l-15.7696-11.4688a19.6608 19.6608 0 0 1-6.8608-22.7328l51.2-138.24a19.6608 19.6608 0 0 1 36.9152 13.6704l-34.5088 93.1328 67.8912-73.216a19.712 19.712 0 0 1 25.088-3.1232l8.7552 5.3248a19.6608 19.6608 0 0 1 8.0896 22.7328l-31.232 94.6176L742.4 567.1424a19.712 19.712 0 1 1 29.7984 25.6z" fill="#FFFFFF" p-id="2187"></path></svg>