<?xml version="1.0" standalone="no"?><!DOCTYPE svg PUBLIC "-//W3C//DTD SVG 1.1//EN" "http://www.w3.org/Graphics/SVG/1.1/DTD/svg11.dtd"><svg t="1732706234805" class="icon" viewBox="0 0 1024 1024" version="1.1" xmlns="http://www.w3.org/2000/svg" p-id="2354" xmlns:xlink="http://www.w3.org/1999/xlink" width="200" height="200"><path d="M515.0208 507.6992m-453.5808 0a453.5808 453.5808 0 1 0 907.1616 0 453.5808 453.5808 0 1 0-907.1616 0Z" fill="#FA75AA" p-id="2355"></path><path d="M563.712 303.1552L431.0016 230.0416l-2.4576 141.7216-176.384 51.2-15.36 22.4768 103.2192 114.8928-65.0752 205.9776L404.48 947.6608a453.888 453.888 0 0 0 564.224-439.9616c0-12.9024-0.5632-25.6-1.6384-38.2464L634.88 228.2496z" fill="#E84F94" p-id="2356"></path><path d="M721.408 775.4752a31.3856 31.3856 0 0 0 31.4368-31.3856V492.6464h-223.8976v282.8288zM265.728 492.6464v251.4432a31.3856 31.3856 0 0 0 31.232 31.3856h192.512V492.6464zM489.472 327.68a5.12 5.12 0 0 1-3.7376-1.6384 5.12 5.12 0 0 1-1.4336-3.84 97.28 97.28 0 0 0-13.824-53.4528c-21.6576-37.5296-60.6208-55.6032-87.04-40.4992s-30.0032 57.4976-8.3456 95.488a29.9008 29.9008 0 0 0 2.7136 3.9424H256.9216a30.72 30.72 0 0 0-30.72 30.72v64.512a30.72 30.72 0 0 0 30.72 30.72h232.7552V327.68zM761.6512 327.68h-120.9856a35.4304 35.4304 0 0 0 2.6624-3.9424c21.6576-37.9904 17.92-80.2816-8.3456-95.488s-65.1776 2.9696-87.04 40.4992a97.28 97.28 0 0 0-13.824 53.4528 5.12 5.12 0 0 1-1.28 3.84 5.12 5.12 0 0 1-3.7376 1.6384v125.696h232.3968a30.4128 30.4128 0 0 0 30.72-30.72V358.4a30.4128 30.4128 0 0 0-30.72-30.72z" fill="#FFFFFF" p-id="2357"></path></svg>