<?xml version="1.0" standalone="no"?><!DOCTYPE svg PUBLIC "-//W3C//DTD SVG 1.1//EN" "http://www.w3.org/Graphics/SVG/1.1/DTD/svg11.dtd"><svg t="1732706241060" class="icon" viewBox="0 0 1024 1024" version="1.1" xmlns="http://www.w3.org/2000/svg" p-id="2524" xmlns:xlink="http://www.w3.org/1999/xlink" width="200" height="200"><path d="M510.4128 512.8192m-453.5808 0a453.5808 453.5808 0 1 0 907.1616 0 453.5808 453.5808 0 1 0-907.1616 0Z" fill="#72DB86" p-id="2525"></path><path d="M960.4096 570.368l-330.0864-260.1984-117.76 62.5664-172.6464-81.92-66.304 3.7376L335.2064 399.872 251.904 547.2256l90.8288 171.1616-39.168 30.72 124.2112 209.92a454.0416 454.0416 0 0 0 532.48-388.5056z" fill="#52C181" p-id="2526"></path><path d="M646.4 573.44c-10.24-9.9328-35.84-10.24-46.08 0l-81.92 78.0288a7.2192 7.2192 0 0 1-9.3184 0.5632l-38.5024-28.9792a6.9632 6.9632 0 0 1-2.7136-4.096c-16.384-65.5872-1.7408-137.2672 4.7616-163.3792a7.2192 7.2192 0 0 1 11.2128-4.096c24.4736 17.8688 95.744 70.0928 129.9456 98.7136a7.2704 7.2704 0 0 0 11.8784-5.12c1.6896-67.7376-19.4048-111.616-56.32-142.0288a7.2192 7.2192 0 0 1 3.8912-12.7488c32.256-3.072 75.5712 5.12 109.7728 19.0464a7.2192 7.2192 0 0 0 9.5232-8.8576c-35.84-120.576-145.9712-128-194.0992-60.8256a7.168 7.168 0 0 1-12.032-1.3312C420.8128 225.28 308.4288 257.024 274.944 287.1296a7.168 7.168 0 0 0 4.096 12.4928c33.536 3.1232 76.1856 17.8176 105.8304 42.8544a7.2704 7.2704 0 0 1-3.8912 12.6976C250.5216 372.224 240.64 476.7744 248.576 542.3104a7.2192 7.2192 0 0 0 11.7248 4.7104 1112.2176 1112.2176 0 0 1 150.9376-102.7584 7.2192 7.2192 0 0 1 10.24 8.9088c-29.2864 77.1584-34.304 153.6-34.6112 193.4336a7.1168 7.1168 0 0 1-1.8432 4.7616l-79.1552 88.576a7.2192 7.2192 0 0 0 7.1168 11.8272c38.1952-9.7792 118.6816-23.2448 221.44-1.0752 133.376 28.7744 217.9072 13.8752 259.7376 1.28a7.2192 7.2192 0 0 0 3.5328-11.4176A2067.4048 2067.4048 0 0 0 646.4 573.44z" fill="#FFFFFF" p-id="2527"></path></svg>