<?xml version="1.0" standalone="no"?><!DOCTYPE svg PUBLIC "-//W3C//DTD SVG 1.1//EN" "http://www.w3.org/Graphics/SVG/1.1/DTD/svg11.dtd"><svg t="1732706371632" class="icon" viewBox="0 0 1024 1024" version="1.1" xmlns="http://www.w3.org/2000/svg" p-id="3039" xmlns:xlink="http://www.w3.org/1999/xlink" width="200" height="200"><path d="M512 512m-457.984 0a457.984 457.984 0 1 0 915.968 0 457.984 457.984 0 1 0-915.968 0Z" fill="#F1EEFF" p-id="3040"></path><path d="M313.1904 617.216h202.9056v144.4864H355.584a42.3936 42.3936 0 0 1-42.3936-42.3936v-102.0928z" fill="#C7B0FF" p-id="3041"></path><path d="M516.096 503.4496m-258.2528 0a258.2528 258.2528 0 1 0 516.5056 0 258.2528 258.2528 0 1 0-516.5056 0Z" fill="#8769FF" p-id="3042"></path><path d="M627.1488 553.2672l-78.7456 78.6944a45.6704 45.6704 0 0 1-64.6656 0L404.48 552.96a88.8832 88.8832 0 0 1 111.616-137.216 88.8832 88.8832 0 0 1 111.0528 137.5232z" fill="#FFFFFF" p-id="3043"></path></svg>