<?xml version="1.0" standalone="no"?><!DOCTYPE svg PUBLIC "-//W3C//DTD SVG 1.1//EN" "http://www.w3.org/Graphics/SVG/1.1/DTD/svg11.dtd"><svg t="1732706376684" class="icon" viewBox="0 0 1024 1024" version="1.1" xmlns="http://www.w3.org/2000/svg" p-id="3208" xmlns:xlink="http://www.w3.org/1999/xlink" width="200" height="200"><path d="M512 512m-457.984 0a457.984 457.984 0 1 0 915.968 0 457.984 457.984 0 1 0-915.968 0Z" fill="#E3FFFC" p-id="3209"></path><path d="M250.5216 240.8448m101.9392 0l282.9824 0q101.9392 0 101.9392 101.9392l0 330.5472q0 101.9392-101.9392 101.9392l-282.9824 0q-101.9392 0-101.9392-101.9392l0-330.5472q0-101.9392 101.9392-101.9392Z" fill="#16D0AF" p-id="3210"></path><path d="M515.4816 530.0736H363.8784a26.368 26.368 0 1 1 0-52.736h151.6032a26.368 26.368 0 0 1 0 52.736zM611.8912 413.0816H363.8784a26.368 26.368 0 1 1 0-52.736h248.0128a26.368 26.368 0 0 1 0 52.736z" fill="#FFFFFF" p-id="3211"></path><path d="M643.4304 660.1728m-130.048 0a130.048 130.048 0 1 0 260.096 0 130.048 130.048 0 1 0-260.096 0Z" fill="#ADF0EA" p-id="3212"></path><path d="M720.5376 698.9824H640a26.368 26.368 0 0 1-26.368-26.368V599.04a26.368 26.368 0 0 1 52.736 0v47.2064h54.016a26.368 26.368 0 1 1 0 52.736z" fill="#FFFFFF" p-id="3213"></path></svg>