<svg data-v-1b800272=""
    xmlns="http://www.w3.org/2000/svg" width="33" height="38" fill="none" class="mr-3">
    <g clip-path="url(#a)">
        <path fill="#6200EE" d="M1.512 6.598A4.537 4.537 0 0 1 6.05 2.062h21.927a4.537 4.537 0 0 1 0 9.073H6.049a4.537 4.537 0 0 1-4.537-4.537"></path>
        <path fill="#6200EE" d="M3.389 3.565a4.537 4.537 0 0 1 6.405.373l12.355 13.884a4.537 4.537 0 0 1-6.778 6.032L3.016 9.97a4.537 4.537 0 0 1 .373-6.405"></path>
        <path fill="#6200EE" d="M1.512 20.964a4.537 4.537 0 0 1 4.537-4.536h12.854a4.537 4.537 0 1 1 0 9.073H6.049a4.537 4.537 0 0 1-4.537-4.537"></path>
        <path fill="#BF7AFF" d="M10.585 32.305a4.537 4.537 0 1 1-9.073 0 4.537 4.537 0 0 1 9.073 0"></path>
    </g>
    <defs>
        <clipPath id="a">
            <path fill="#fff" d="M0 .549h32.512v36.903H0z"></path>
        </clipPath>
    </defs>
</svg>