<svg width="260" height="44" xmlns="http://www.w3.org/2000/svg" fill="none">

 <g>
  <title>background</title>
  <rect fill="none" id="canvas_background" height="46" width="262" y="-1" x="-1"/>
 </g>
 <g>
  <title>Layer 1</title>
  <path id="svg_1" fill="#00B2FF" d="m25.5,19c1.3807,0 2.5,-1.1193 2.5,-2.5c0,-1.3807 -1.1193,-2.5 -2.5,-2.5c-1.3807,0 -2.5,1.1193 -2.5,2.5c0,0.1755 0.0181,0.3467 0.0525,0.512l-2.5872,1.8378c-0.6793,-0.5324 -1.5352,-0.8498 -2.4653,-0.8498c-2.2091,0 -4,1.7909 -4,4c0,2.2091 1.7909,4 4,4c0.0832,0 0.1658,-0.0025 0.2477,-0.0075l0.6894,1.7595c-0.2736,0.3421 -0.4371,0.7759 -0.4371,1.248c0,1.1046 0.8954,2 2,2c1.1046,0 2,-0.8954 2,-2c0,-1.0029 -0.7382,-1.8334 -1.7008,-1.9778l-0.6466,-1.6502c0.5288,-0.3383 0.9727,-0.7975 1.2927,-1.3386l2.5631,0.6933c0.1159,1.551 1.411,2.7733 2.9916,2.7733c1.6569,0 3,-1.3431 3,-3c0,-1.6569 -1.3431,-3 -3,-3c-1.024,0 -1.9282,0.513 -2.4695,1.2961l-2.532,-0.6849c0.001,-0.0369 0.0015,-0.074 0.0015,-0.1112c0,-0.5543 -0.1127,-1.0823 -0.3165,-1.5622l2.5273,-1.7954c0.3765,0.227 0.8176,0.3576 1.2892,0.3576z"/>
  <path id="svg_2" fill="#0052D9" d="m13.1794,14.0207l8.8206,-5.09257l11.3205,6.53587l0,10.1851l6,3.4641l0,-15.9586c0,-0.7145 -0.3812,-1.3748 -1,-1.732l-15.3205,-8.84533c-0.6188,-0.35726 -1.3812,-0.35726 -2,0.00001l-13.82055,7.97932l5.99995,3.4641z"/>
  <path id="svg_3" fill="#0052D9" d="m10.6795,18.3508l-6,-3.4641l0,15.9585c0,0.7146 0.3812,1.3748 1.00001,1.7321l15.32049,8.8453c0.6188,0.3572 1.3812,0.3572 2,0l13.8205,-7.9793l-6,-3.4641l-8.8205,5.0925l-11.3205,-6.5359l0,-10.185z"/>
  <text font-weight="normal" xml:space="preserve" text-anchor="start" font-family="Helvetica, Arial, sans-serif" font-size="28" id="svg_4" y="30.945313" x="51.5" stroke-width="0" fill="#0052D9">Tencent LKEAP</text>
 </g>
</svg>