<svg width="44" height="44" viewBox="0 0 44 44" fill="none" xmlns="http://www.w3.org/2000/svg">
<path d="M25.5 19C26.8807 19 28 17.8807 28 16.5C28 15.1193 26.8807 14 25.5 14C24.1193 14 23 15.1193 23 16.5C23 16.6755 23.0181 16.8467 23.0525 17.012L20.4653 18.8498C19.786 18.3174 18.9301 18 18 18C15.7909 18 14 19.7909 14 22C14 24.2091 15.7909 26 18 26C18.0832 26 18.1658 25.9975 18.2477 25.9925L18.9371 27.752C18.6635 28.0941 18.5 28.5279 18.5 29C18.5 30.1046 19.3954 31 20.5 31C21.6046 31 22.5 30.1046 22.5 29C22.5 27.9971 21.7618 27.1666 20.7992 27.0222L20.1526 25.372C20.6814 25.0337 21.1253 24.5745 21.4453 24.0334L24.0084 24.7267C24.1243 26.2777 25.4194 27.5 27 27.5C28.6569 27.5 30 26.1569 30 24.5C30 22.8431 28.6569 21.5 27 21.5C25.976 21.5 25.0718 22.013 24.5305 22.7961L21.9985 22.1112C21.9995 22.0743 22 22.0372 22 22C22 21.4457 21.8873 20.9177 21.6835 20.4378L24.2108 18.6424C24.5873 18.8694 25.0284 19 25.5 19Z" fill="#00B2FF"/>
<path d="M13.1794 14.0207L22 8.92813L33.3205 15.464V25.6491L39.3205 29.1132V13.1546C39.3205 12.4401 38.9393 11.7798 38.3205 11.4226L23 2.57727C22.3812 2.22001 21.6188 2.22001 21 2.57728L7.17945 10.5566L13.1794 14.0207Z" fill="#0052D9"/>
<path d="M10.6795 18.3508L4.6795 14.8867V30.8452C4.6795 31.5598 5.0607 32.22 5.67951 32.5773L21 41.4226C21.6188 41.7798 22.3812 41.7798 23 41.4226L36.8205 33.4433L30.8205 29.9792L22 35.0717L10.6795 28.5358V18.3508Z" fill="#0052D9"/>
</svg>
