<?xml version="1.0" standalone="no"?>
<!DOCTYPE svg PUBLIC "-//W3C//DTD SVG 20010904//EN"
 "http://www.w3.org/TR/2001/REC-SVG-20010904/DTD/svg10.dtd">
<svg version="1.0" xmlns="http://www.w3.org/2000/svg"
 width="1024.000000pt" height="1024.000000pt" viewBox="0 0 1024.000000 1024.000000"
 preserveAspectRatio="xMidYMid meet">

<g transform="translate(0.000000,1024.000000) scale(0.100000,-0.100000)"
fill="#000000" stroke="none">
<path d="M4050 7868 c-96 -27 -144 -106 -138 -224 3 -63 7 -77 33 -109 51 -63
105 -85 211 -85 81 0 97 -3 152 -31 73 -36 165 -131 224 -232 l39 -68 -75 -80
c-166 -176 -230 -413 -167 -619 12 -41 34 -95 47 -119 13 -24 24 -45 24 -46 0
-2 -19 -6 -42 -10 -518 -83 -1233 -467 -1612 -866 -126 -132 -207 -245 -275
-384 -78 -157 -105 -259 -104 -390 0 -186 67 -339 208 -480 134 -134 279 -195
466 -195 225 0 447 99 621 277 69 71 142 179 134 200 -3 6 1 17 9 23 7 6 16
30 20 53 18 112 145 515 167 529 7 4 515 8 1130 8 l1116 0 35 -112 c20 -62 56
-186 81 -276 66 -232 115 -322 248 -447 292 -279 711 -337 980 -137 118 88
205 206 256 351 24 69 27 89 27 211 -1 109 -5 150 -24 215 -93 328 -370 653
-796 930 -381 248 -744 397 -1191 490 -22 5 -21 6 12 83 53 122 69 218 55 325
-21 161 -79 281 -193 401 l-68 71 43 74 c51 90 144 187 215 225 47 25 63 28
139 27 103 -1 151 10 194 46 92 78 92 258 0 336 -136 114 -455 20 -666 -198
-70 -71 -175 -234 -216 -333 l-20 -47 -182 0 c-100 0 -205 -3 -233 -8 l-51 -7
-46 95 c-115 237 -234 367 -438 478 -110 60 -252 83 -349 55z m423 -1707 c-5
-6 -53 41 -65 64 -6 11 7 2 29 -20 22 -22 38 -42 36 -44z m1062 56 c113 -16
130 -23 192 -80 49 -45 90 -113 156 -262 25 -55 63 -136 84 -181 l40 -81 -271
-7 c-380 -9 -1506 -19 -1506 -13 0 20 144 345 196 442 76 142 101 173 157 191
58 19 805 12 952 -9z m286 6 c-5 -10 -21 -29 -35 -42 -14 -14 -26 -32 -26 -40
0 -12 -2 -13 -8 -3 -5 8 6 28 32 56 46 50 51 54 37 29z m228 -678 c0 -5 -6 1
-14 15 -8 14 -14 30 -14 35 0 6 6 -1 14 -15 8 -14 14 -29 14 -35z m-1868 -51
c-22 -44 -40 -76 -41 -72 0 11 73 158 78 154 2 -2 -15 -39 -37 -82z m1914 -50
c20 -47 35 -88 33 -90 -4 -3 -33 62 -76 168 -2 4 -2 8 1 8 3 0 21 -39 42 -86z
m-1984 -101 c-11 -21 -20 -35 -21 -31 0 12 33 78 38 74 2 -2 -6 -21 -17 -43z
m2063 -103 c3 -14 -2 -7 -13 15 -10 22 -21 51 -25 65 -3 14 2 7 13 -15 10 -22
21 -51 25 -65z m-2098 23 c-8 -15 -15 -25 -16 -21 0 12 23 58 27 54 3 -2 -2
-17 -11 -33z m-57 -143 c-22 -58 -38 -93 -35 -79 7 35 67 191 72 187 1 -2 -15
-51 -37 -108z m2180 45 c0 -5 -4 -3 -9 5 -5 8 -9 22 -9 30 0 16 17 -16 18 -35z
m41 -119 c0 -26 -6 -18 -14 19 -5 22 -4 26 4 15 5 -8 10 -24 10 -34z"/>
<path d="M3809 4428 c0 -2 -3 -84 -6 -183 -4 -131 -1 -212 11 -299 8 -65 18
-121 21 -124 18 -18 2179 -24 2446 -7 l117 8 13 61 c15 65 20 496 7 529 -7 16
-79 17 -1308 17 -715 0 -1300 -1 -1301 -2z"/>
<path d="M4141 3218 c34 -50 216 -227 301 -295 190 -151 501 -343 628 -388 39
-14 44 -13 138 21 53 19 119 49 147 66 229 144 357 234 475 334 89 74 252 240
270 274 11 20 2 20 -985 20 l-996 0 22 -32z"/>
</g>
</svg>
