<?xml version="1.0" encoding="UTF-8"?>
<svg width="20" height="20" viewBox="0 0 120 120" fill="none" xmlns="http://www.w3.org/2000/svg">
  <rect width="120" height="120" fill="white"/>
  <g clip-path="url(#clip0_1_26)">
    <path d="M18.2797 48.915V54.7671L13.7333 48.915H10.8702V59.9741H13.9064V53.9019L18.6258 59.9741H21.3158V48.915H18.2797Z" fill="#7F1084"/>
    <path d="M32.1232 51.6051V48.915H23.2979L23.2665 59.9741H26.3341V56.0256H31.5569V53.4771H26.3341V51.6051H32.1232Z" fill="#7F1084"/>
    <path d="M33.5862 48.915V59.9741H36.6695V48.915H33.5862Z" fill="#7F1084"/>
    <path d="M46.1083 48.915V54.7671L41.5619 48.915H38.6989V59.9741H41.735V53.9019L46.4544 59.9741H49.1444V48.915H46.1083Z" fill="#7F1084"/>
    <path d="M51.1737 48.915V59.9741H54.257V48.915H51.1737Z" fill="#7F1084"/>
    <path d="M85.468 48.915V54.7671L80.9217 48.915H78.0586V59.9741H81.0947V53.9019L85.8141 59.9741H88.5042V48.915H85.468Z" fill="#7F1084"/>
    <path d="M6.4969 57.0638V45.989H-0.00012207V48.915H2.98882V57.0638H-0.00012207V59.9741H9.48585V57.0638H6.4969Z" fill="#7F1084"/>
    <path d="M65.8195 53.4299V59.9741H56.2864V48.915H65.8667V51.432H58.8034V57.4414H63.2868V55.3963H61.462V53.4299H65.8195Z" fill="#7F1084"/>
    <path d="M99.9408 51.432V48.915H90.8167V59.9741H99.9251V57.4414H93.3337V51.432H99.9408Z" fill="#7F1084"/>
    <path d="M9.48577 43H6.49683V45.989H9.48577V43Z" fill="#2EA7E0"/>
    <path d="M105.038 57.3627V55.6166H110.355V53.194H105.038V51.5264H110.905V48.915H101.986V59.9741H110.984V57.3627H105.038Z" fill="#7F1084"/>
    <path d="M70.5233 57.3627V55.6166H75.8405V53.194H70.5233V51.5264H76.3911V48.915H67.4714V59.9741H76.4697V57.3627H70.5233Z" fill="#7F1084"/>
  </g>
  <defs>
    <clipPath id="clip0_1_26">
      <rect width="120" height="34" fill="white" transform="translate(0 43)"/>
    </clipPath>
  </defs>
</svg> 