<svg width="151" height="24" viewBox="0 0 151 24" fill="none" xmlns="http://www.w3.org/2000/svg">
<path d="M60.5695 9.06042L68.4687 21.6774H71.505V4.06445H68.4929V16.7056L60.5695 4.06445H57.5332V21.6774H60.5695V9.06042Z" fill="black" style="fill:black;fill-opacity:1;"/>
<path fill-rule="evenodd" clip-rule="evenodd" d="M77.9759 21.4485C78.7581 21.763 79.6331 21.9202 80.6009 21.9202C81.4557 21.9202 82.2057 21.8033 82.8509 21.5694C83.5041 21.3356 84.0565 21.0331 84.5081 20.6622C84.9597 20.2831 85.3267 19.888 85.6089 19.4767L84.0726 17.9888C83.6694 18.5049 83.1936 18.9041 82.6452 19.1864C82.0968 19.4686 81.4718 19.6098 80.7702 19.6098C80.2138 19.6098 79.7178 19.5089 79.2823 19.3073C78.8468 19.0977 78.4759 18.8114 78.1694 18.4485C77.8629 18.0856 77.6291 17.6622 77.4678 17.1783C77.353 16.8098 77.2812 16.4187 77.2524 16.0049H85.8388V14.7589C85.8388 13.8154 85.7218 12.9525 85.4879 12.1702C85.2621 11.388 84.9154 10.7146 84.4476 10.1501C83.9879 9.5775 83.4073 9.13395 82.7057 8.81943C82.0041 8.50491 81.1855 8.34766 80.25 8.34766C79.4033 8.34766 78.617 8.50491 77.8912 8.81943C77.1654 9.13395 76.5363 9.58959 76.0041 10.1864C75.4718 10.7751 75.0565 11.4848 74.7581 12.3154C74.4597 13.146 74.3105 14.0735 74.3105 15.0977V15.5815C74.3105 16.4767 74.4557 17.3114 74.746 18.0856C75.0363 18.8598 75.4517 19.5331 75.992 20.1057C76.5404 20.6783 77.2017 21.1259 77.9759 21.4485ZM77.313 13.9122C77.3433 13.6887 77.3828 13.475 77.4315 13.271C77.5686 12.7227 77.7621 12.2549 78.0121 11.8678C78.2621 11.4807 78.5726 11.1864 78.9436 10.9848C79.3226 10.7751 79.7541 10.6702 80.2379 10.6702C80.8831 10.6702 81.3992 10.8114 81.7863 11.0936C82.1734 11.3759 82.4597 11.7468 82.6452 12.2065C82.8388 12.6662 82.9436 13.1581 82.9597 13.6823V13.9122H77.313Z" fill="black" style="fill:black;fill-opacity:1;"/>
<path d="M91.9481 18.9917C91.8352 18.774 91.7788 18.4635 91.7788 18.0603V10.7175H94.1134V8.58845H91.7788V5.38281H88.8634V8.58845H86.7344V10.7175H88.8634V18.2417C88.8634 19.1369 89.0086 19.8546 89.2989 20.3949C89.5893 20.9353 89.9925 21.3264 90.5086 21.5683C91.0247 21.8022 91.6175 21.9191 92.2868 21.9191C92.6981 21.9191 93.061 21.8909 93.3755 21.8345C93.6981 21.778 93.9804 21.7135 94.2223 21.6409L94.2102 19.4151C94.0973 19.4393 93.9481 19.4635 93.7626 19.4877C93.5772 19.5119 93.3836 19.524 93.182 19.524C92.8997 19.524 92.6538 19.4877 92.4441 19.4151C92.2344 19.3425 92.0691 19.2014 91.9481 18.9917Z" fill="black" style="fill:black;fill-opacity:1;"/>
<path d="M105.69 17.6492L100.598 4.06445H96.6543V21.6774H99.6785V15.8226L99.3798 7.97783L104.602 21.6774H106.755L111.989 7.97001L111.69 15.8226V21.6774H114.727V4.06445H110.771L105.69 17.6492Z" fill="black" style="fill:black;fill-opacity:1;"/>
<path d="M118.477 4.05305C118.186 4.34337 118.041 4.71031 118.041 5.15386C118.041 5.58934 118.186 5.95224 118.477 6.24257C118.775 6.53289 119.186 6.67805 119.711 6.67805C120.227 6.67805 120.634 6.53289 120.932 6.24257C121.231 5.95224 121.38 5.58934 121.38 5.15386C121.38 4.71031 121.231 4.34337 120.932 4.05305C120.634 3.75466 120.227 3.60547 119.711 3.60547C119.186 3.60547 118.775 3.75466 118.477 4.05305Z" fill="black" style="fill:black;fill-opacity:1;"/>
<path d="M127.173 10.167L127.078 8.58959H124.332V21.6783H127.247V12.3765C127.34 12.1961 127.445 12.0266 127.561 11.8678C127.836 11.5049 128.17 11.2186 128.565 11.0089C128.961 10.7993 129.408 10.6944 129.908 10.6944C130.416 10.6944 130.84 10.7751 131.178 10.9364C131.525 11.0896 131.787 11.3517 131.965 11.7227C132.15 12.0856 132.243 12.5815 132.243 13.2106V21.6783H135.17V13.2227C135.17 12.3275 135.074 11.5735 134.88 10.9606C134.686 10.3396 134.404 9.83556 134.033 9.44846C133.67 9.06137 133.231 8.78314 132.715 8.61379C132.207 8.43637 131.638 8.34766 131.009 8.34766C130.227 8.34766 129.517 8.50088 128.88 8.80733C128.243 9.10572 127.694 9.53314 127.235 10.0896C127.214 10.1152 127.194 10.141 127.173 10.167Z" fill="black" style="fill:black;fill-opacity:1;"/>
<path fill-rule="evenodd" clip-rule="evenodd" d="M146.263 20.2783L146.407 21.6783H149.056V3.09766H146.129V9.83572C145.758 9.4026 145.326 9.05981 144.835 8.80733C144.238 8.50088 143.544 8.34766 142.754 8.34766C141.956 8.34766 141.238 8.50895 140.601 8.83153C139.964 9.14604 139.423 9.60169 138.98 10.1985C138.536 10.7872 138.198 11.4928 137.964 12.3154C137.73 13.1299 137.613 14.0331 137.613 15.0251V15.2791C137.613 16.2307 137.73 17.1138 137.964 17.9283C138.198 18.7348 138.536 19.4364 138.98 20.0331C139.423 20.6299 139.96 21.0936 140.589 21.4243C141.226 21.7549 141.939 21.9202 142.73 21.9202C143.528 21.9202 144.226 21.767 144.823 21.4606C145.382 21.177 145.863 20.7829 146.263 20.2783ZM146.129 12.3304C146.013 12.0948 145.876 11.8801 145.718 11.6864C145.468 11.3718 145.157 11.1299 144.786 10.9606C144.423 10.7831 143.992 10.6944 143.492 10.6944C142.96 10.6944 142.508 10.8073 142.137 11.0331C141.766 11.2589 141.46 11.5694 141.218 11.9646C140.984 12.3598 140.81 12.8194 140.698 13.3436C140.585 13.8678 140.528 14.4283 140.528 15.0251V15.2791C140.528 15.8759 140.581 16.4323 140.685 16.9485C140.798 17.4646 140.972 17.9202 141.206 18.3154C141.439 18.7025 141.742 19.0089 142.113 19.2348C142.492 19.4525 142.943 19.5614 143.468 19.5614C144.129 19.5614 144.673 19.4162 145.101 19.1259C145.528 18.8356 145.863 18.4444 146.105 17.9525C146.113 17.9362 146.121 17.9198 146.129 17.9034V12.3304Z" fill="black" style="fill:black;fill-opacity:1;"/>
<path d="M121.161 21.6786V8.58984H118.234V21.6786H121.161Z" fill="black" style="fill:black;fill-opacity:1;"/>
<path fill-rule="evenodd" clip-rule="evenodd" d="M30.7333 0.947599C31.1935 0.977436 31.6377 1.13013 32.021 1.39023C32.4296 1.60162 32.7776 1.91616 33.0317 2.30359C33.4481 3.05475 33.6061 3.92527 33.4808 4.77771C33.3554 5.63014 32.9538 6.4159 32.3395 7.01092C31.7784 7.49261 31.1568 7.89661 30.4911 8.21235C29.4581 8.70646 28.5456 9.42622 27.8188 10.3201C26.8275 11.5211 26.0497 12.8882 25.5204 14.36C25.1197 15.4471 24.9612 16.6109 25.0566 17.7675C25.129 18.3954 25.129 19.0296 25.0566 19.6575C24.9465 20.5706 24.5042 21.409 23.8164 22.0083C23.1287 22.6075 22.2451 22.9242 21.339 22.8964C20.4257 22.9297 19.534 22.6092 18.845 21.9999C18.1559 21.3906 17.721 20.5381 17.6284 19.6153C17.556 18.9875 17.556 18.3532 17.6284 17.7254C17.7203 16.5688 17.562 15.4058 17.1646 14.3178C16.9022 13.5869 16.5755 12.8815 16.1884 12.2101C15.8012 11.5344 15.3589 10.8928 14.8662 10.292C14.3531 9.66644 13.7511 9.12183 13.0801 8.67605C12.7731 8.49762 12.4383 8.37404 12.0901 8.31071C11.7232 8.37238 11.3737 8.51378 11.0655 8.72524C10.4227 9.16742 9.84468 9.69962 9.34866 10.3061C8.85593 10.9068 8.41363 11.5484 8.0264 12.2241C7.6421 12.897 7.31552 13.6022 7.05028 14.3319C6.65162 15.4195 6.49557 16.5833 6.59337 17.7394C6.6843 18.5727 6.62329 19.4158 6.41338 20.2266C6.19902 21.0188 5.72785 21.7145 5.07593 22.2015C4.42402 22.6884 3.62942 22.9382 2.82042 22.9105C2.36349 22.8912 1.91952 22.7507 1.53277 22.503C1.12761 22.2857 0.784325 21.9663 0.535876 21.5756C0.103219 20.8338 -0.0750649 19.9674 0.0288959 19.1119C0.132857 18.2564 0.513202 17.46 1.11047 16.8471C1.71006 16.3629 2.36565 15.9547 3.06272 15.6317C4.09528 15.137 5.00768 14.4173 5.73494 13.5239C6.23213 12.925 6.67688 12.2832 7.06412 11.6058C7.44364 10.9314 7.7678 10.2265 8.03332 9.49808C8.43366 8.41085 8.59206 7.2472 8.49715 6.09053C8.41731 5.46315 8.41731 4.82796 8.49715 4.20058C8.7533 2.90079 9.48712 0.954625 12.104 0.954625C14.7208 0.954625 15.4131 2.83756 15.7177 4.24273C15.8016 4.86984 15.8016 5.50558 15.7177 6.13269C15.6228 7.28935 15.7812 8.453 16.1815 9.54024C16.4466 10.27 16.7732 10.9752 17.1576 11.648C17.5445 12.3273 17.9917 12.9694 18.4937 13.5661C19.034 14.2246 19.6744 14.7914 20.3906 15.2452C20.6903 15.4285 21.0215 15.5525 21.3667 15.6106C21.7444 15.5408 22.1045 15.3951 22.4259 15.182C23.0992 14.7365 23.7034 14.1919 24.2189 13.5661C24.7088 12.9513 25.1465 12.2956 25.5274 11.6058C25.9118 10.933 26.2384 10.2278 26.5035 9.49808C26.9003 8.40995 27.0586 7.2471 26.9673 6.09053C26.8963 5.38846 26.9149 4.68001 27.0227 3.98277C27.2719 2.72514 28.7326 0.842211 30.7333 0.947599ZM42.4747 19.3617C42.4747 21.3252 40.9063 22.9168 38.9717 22.9168C37.0371 22.9168 35.4688 21.3252 35.4688 19.3617C35.4688 17.3983 37.0371 15.8066 38.9717 15.8066C40.9063 15.8066 42.4747 17.3983 42.4747 19.3617Z" fill="url(#paint0_linear_296_1627)" style=""/>
<defs>
<linearGradient id="paint0_linear_296_1627" x1="-0.176978" y1="2.5129" x2="44.0672" y2="7.22058" gradientUnits="userSpaceOnUse">
<stop stop-color="#F6384E" style="stop-color:#F6384E;stop-color:color(display-p3 0.9647 0.2196 0.3059);stop-opacity:1;"/>
<stop offset="0.53125" stop-color="#FF9A06" style="stop-color:#FF9A06;stop-color:color(display-p3 1.0000 0.6039 0.0235);stop-opacity:1;"/>
<stop offset="0.979167" stop-color="#FFD706" style="stop-color:#FFD706;stop-color:color(display-p3 1.0000 0.8431 0.0235);stop-opacity:1;"/>
</linearGradient>
</defs>
</svg>
