<?xml version="1.0" standalone="no"?><!DOCTYPE svg PUBLIC "-//W3C//DTD SVG 1.1//EN" "http://www.w3.org/Graphics/SVG/1.1/DTD/svg11.dtd"><svg t="1737708031824" class="icon" viewBox="0 0 1024 1024" version="1.1" xmlns="http://www.w3.org/2000/svg" p-id="29361" xmlns:xlink="http://www.w3.org/1999/xlink" width="200" height="200"><path d="M0 512a512 512 0 1 0 1024 0 512 512 0 1 0-1024 0Z" fill="#3BB875" p-id="29362"></path><path d="M531.2 265.216l93.781333 21.589333-0.341333 168.106667-46.677333-26.624-46.762667 27.306667V265.216z m179.498667 502.698667h-336.64A75.52 75.52 0 0 1 298.666667 692.48V332.970667A77.098667 77.098667 0 0 1 375.68 256h335.018667c13.013333 0 23.552 10.538667 23.552 23.509333v464.896a23.552 23.552 0 0 1-23.552 23.509334z m-336.64-103.765334a28.373333 28.373333 0 1 0 0 56.746667h313.173333v-56.746667h-313.173333z m1.578666-361.130666a29.994667 29.994667 0 0 0-29.952 29.952v289.664c8.96-3.669333 18.645333-5.546667 28.373334-5.546667h313.088v-314.026667H375.637333z" fill="#FFFFFF" p-id="29363"></path></svg>