<svg t="1738898735804" class="icon" viewBox="0 0 1024 1024" version="1.1" xmlns="http://www.w3.org/2000/svg" p-id="22142" width="200" height="200"><path d="M695.3984 634.2656c13.1584 0 24.832 8.4224 29.0048 20.8896l16.0512 48.2048a61.1328 61.1328 0 0 0 38.656 38.656l48.2048 16.0768a30.5664 30.5664 0 0 1 0 57.984l-48.2048 16.0768a61.1328 61.1328 0 0 0-38.656 38.656l-16.0512 48.2048a30.5664 30.5664 0 0 1-58.0096 0l-16.0512-48.2048a61.1328 61.1328 0 0 0-38.656-38.656l-48.2048-16.0768a30.5664 30.5664 0 0 1 0-57.984l48.2048-16.0768a61.1072 61.1072 0 0 0 38.656-38.656l16.0512-48.2048a30.5664 30.5664 0 0 1 29.0048-20.8896z" p-id="22143" fill="#1677ff"></path><path d="M756.5056 84.096c14.0288 0 26.2656 9.5488 29.6704 23.1424l10.5472 42.2144a106.9824 106.9824 0 0 0 77.824 77.824l42.2144 10.5472a30.5664 30.5664 0 0 1 0 59.3152l-42.2144 10.5472a106.9824 106.9824 0 0 0-77.824 77.824l-10.5472 42.2144a30.5664 30.5664 0 0 1-59.3152 0l-10.5472-42.2144a106.9824 106.9824 0 0 0-77.824-77.824l-42.2144-10.5472a30.5664 30.5664 0 0 1 0-59.3152l42.1888-10.5472a106.9824 106.9824 0 0 0 77.824-77.824l10.5728-42.2144c3.4048-13.5936 15.616-23.1424 29.6448-23.1424z" p-id="22144" fill="#1677ff"></path><path d="M389.76 206.336c13.6448 0 25.6256 9.0624 29.3632 22.1696l33.152 115.9936a152.832 152.832 0 0 0 104.96 104.96l115.968 33.152a30.5664 30.5664 0 0 1 0 58.7776l-115.968 33.1264a152.832 152.832 0 0 0-104.96 104.96l-33.152 115.9936a30.5664 30.5664 0 0 1-58.7776 0l-33.1264-115.968a152.832 152.832 0 0 0-104.96-104.96l-115.968-33.152a30.5664 30.5664 0 0 1 0-58.7776l115.968-33.152a152.832 152.832 0 0 0 104.96-104.96l33.1264-115.968a30.5664 30.5664 0 0 1 29.4144-22.1696z" p-id="22145" fill="#1677ff"></path></svg>