<svg xmlns="http://www.w3.org/2000/svg" width="20" height="21" fill="none" viewBox="0 0 20 21"><path fill="#7A7E8A" d="M2.843 3.764c.449-.12.799-.471.92-.92l.16-.6c.125-.468.79-.468.915 0l.161.604c.12.45.472.8.921.92l.604.162c.468.126.468.79 0 .915l-.6.161c-.449.12-.8.47-.92.92l-.167.617c-.125.467-.788.467-.914 0l-.165-.614a1.3 1.3 0 0 0-.92-.918l-.613-.166c-.467-.126-.467-.789 0-.914zm10.063-1.402c.207 0 .406.082.552.229l3.282 3.28c.305.306.305.8 0 1.106L6.896 16.82a.78.78 0 0 1-.552.23H3.062a.78.78 0 0 1-.78-.782v-3.281c0-.207.082-.406.228-.553l9.844-9.843a.78.78 0 0 1 .552-.23m0 1.886L3.844 13.31v2.177H6.02l9.062-9.063zm.602 9.765a1.69 1.69 0 0 0 1.195-1.197l.209-.779c.163-.609 1.026-.609 1.19 0l.21.785c.156.584.612 1.04 1.197 1.197l.785.21c.608.163.608 1.027 0 1.19l-.78.208a1.69 1.69 0 0 0-1.197 1.195l-.216.803c-.163.607-1.025.607-1.189 0l-.215-.797a1.69 1.69 0 0 0-1.194-1.195l-.797-.214c-.608-.164-.608-1.026 0-1.19z"></path></svg>