<svg t="1739412056315" class="icon" viewBox="0 0 1024 1024" version="1.1" xmlns="http://www.w3.org/2000/svg" p-id="13945" width="200" height="200"><path d="M512 512m-512 0a512 512 0 1 0 1024 0 512 512 0 1 0-1024 0Z" fill="#48C777" p-id="13946"></path><path d="M292.2496 403.08736l189.67552 94.47424c9.75872 4.864 15.95392 15.0528 15.95392 26.2144v231.8848c0 5.1712-2.6624 9.96352-6.98368 12.57472-4.33152 2.6112-9.6768 2.6624-14.04928 0.12288L286.37184 657.63328a29.2864 29.2864 0 0 1-14.37696-25.344V416.19456c0-5.0176 2.5088-9.66656 6.61504-12.32896 4.11648-2.6624 9.25696-2.94912 13.63968-0.77824z m36.21888 100.47488c0 8.93952 4.99712 17.14176 12.94336 21.23776l87.06048 44.9024a8.87808 8.87808 0 0 0 12.94336-7.8848c0-8.94976-4.99712-17.14176-12.94336-21.248l-87.06048-44.89216a8.87808 8.87808 0 0 0-12.94336 7.8848z m194.6624-245.22752l206.848 90.49088c4.7616 1.87392 7.90528 6.58432 7.90528 11.83744 0 5.26336-3.14368 9.97376-7.90528 11.83744l-206.848 90.5216a27.88352 27.88352 0 0 1-22.25152 0l-206.848-90.5216a12.66688 12.66688 0 0 1-7.91552-11.83744c0-5.25312 3.14368-9.96352 7.90528-11.83744l206.848-90.49088a27.648 27.648 0 0 1 22.25152 0zM731.7504 403.08736l-189.67552 94.50496c-9.75872 4.85376-15.95392 15.04256-15.95392 26.2144v231.936c0 5.1712 2.6624 9.95328 6.99392 12.55424 4.33152 2.6112 9.66656 2.6624 14.0288 0.12288l190.48448-110.6944a29.2864 29.2864 0 0 0 14.36672-25.43616V416.19456c0-5.0176-2.49856-9.66656-6.6048-12.32896a13.74208 13.74208 0 0 0-13.63968-0.77824z" fill="#FFFFFF" p-id="13947"></path></svg>