<svg t="1739411985306" class="icon" viewBox="0 0 1024 1024" version="1.1" xmlns="http://www.w3.org/2000/svg" p-id="11097" width="200" height="200"><path d="M946.048 384v365.312a41.984 41.984 0 0 1-23.808 37.888l-318.72 152.512a41.984 41.984 0 0 1-60.16-37.888V538.496c0-16.064 9.28-30.72 23.68-37.76l318.72-154.496a41.984 41.984 0 0 1 60.288 37.76zM78.08 382.912c0-31.04 32.448-51.328 60.352-37.76l318.016 154.432c14.464 7.04 23.68 21.696 23.68 37.76v364.544c0 30.976-32.32 51.264-60.16 37.888L101.824 787.2a41.984 41.984 0 0 1-23.808-37.888z m418.368-304a41.984 41.984 0 0 1 30.848-0.064l331.776 131.072a41.984 41.984 0 0 1 2.56 77.056L529.856 444.096a41.984 41.984 0 0 1-35.968 0L162.432 286.912a41.984 41.984 0 0 1 2.56-77.056z" fill="#6F5EF9" p-id="11098"></path></svg>