<svg t="1738830983130" class="icon" viewBox="0 0 1024 1024" version="1.1" xmlns="http://www.w3.org/2000/svg" p-id="11156" width="200" height="200"><path d="M0 512C0 229.248 229.248 0 512 0s512 229.248 512 512-229.248 512-512 512S0 794.752 0 512z" fill="#50CD50" p-id="11157"></path><path d="M529.408 337.450667c-47.530667 0-87.253333 39.509333-87.253333 89.770666a34.901333 34.901333 0 1 1-69.802667 0c0-87.466667 69.674667-159.573333 157.056-159.573333 87.466667 0 157.098667 72.106667 157.098667 159.573333a160.426667 160.426667 0 0 1-48.682667 115.498667l-10.709333 10.282667c-15.701333 15.018667-30.165333 28.885333-42.026667 43.946666-14.122667 18.090667-20.736 33.450667-20.736 48.042667v6.613333a34.901333 34.901333 0 0 1-69.845333 0v-6.613333c0-36.864 16.981333-67.285333 35.626666-91.093333 15.274667-19.413333 34.176-37.504 49.962667-52.565334l9.130667-8.746666c16.896-16.341333 27.477333-39.509333 27.477333-65.365334 0-50.261333-39.722667-89.770667-87.296-89.770666z" fill="#FFFFFF" p-id="11158"></path><path d="M558.549333 791.296a34.901333 34.901333 0 1 1-69.802666 0 34.901333 34.901333 0 0 1 69.802666 0z" fill="#FFFFFF" p-id="11159"></path></svg>