<svg xmlns="http://www.w3.org/2000/svg" width="100" height="100" viewBox="0 0 48 48" focusable="false" class="chakra-icon css-qip50i"><linearGradient id="bing_svg__a" x1="11.905" x2="17.941" y1="1.952" y2="40.401" gradientUnits="userSpaceOnUse"><stop offset="0" stop-color="#3dbffc"></stop><stop offset="1" stop-color="#183efb"></stop></linearGradient><path fill="url(#bing_svg__a)" d="M17.572 37.076 20 35.619V10.603a4.998 4.998 0 0 0-2.133-4.096L12.36 2.652c-.994-.696-2.36.015-2.36 1.229V32.5c0 .22.02.555.033.772.336 3.595 4.349 5.718 7.539 3.804z"></path><linearGradient id="bing_svg__b" x1="14.342" x2="34.121" y1="41.478" y2="25.575" gradientUnits="userSpaceOnUse"><stop offset="0" stop-color="#33bef0"></stop><stop offset="0.159" stop-color="#32b9f0"></stop><stop offset="0.341" stop-color="#2facf2"></stop><stop offset="0.533" stop-color="#2a95f4"></stop><stop offset="0.733" stop-color="#2475f6"></stop><stop offset="0.936" stop-color="#1b4cfa"></stop><stop offset="1" stop-color="#183efb"></stop></linearGradient><path fill="url(#bing_svg__b)" d="M32.682 27.904 20 35.5l-2.428 1.457c-3.191 1.915-7.203-.209-7.54-3.804C10.372 38.922 15.145 43.5 21 43.5c1.963 0 3.888-.536 5.568-1.551l6.834-4.126a11.136 11.136 0 0 0 2.15-1.707c2.354-2.701 1.187-7.447-2.87-8.212z"></path><linearGradient id="bing_svg__c" x1="24.223" x2="45.699" y1="17.113" y2="38.588" gradientUnits="userSpaceOnUse"><stop offset="0" stop-color="#3dbffd"></stop><stop offset="1" stop-color="#1de9b6"></stop></linearGradient><path fill="url(#bing_svg__c)" d="m33.636 19.568-7.607-3.803c-1.234-.617-2.576.618-2.064 1.899l1.755 5.886a4.996 4.996 0 0 0 2.719 2.758L32.5 28c4.057.766 5.352 5.251 3.052 8.117 4.847-4.877 4.536-13.323-1.916-16.549z"></path></svg>