<?xml version="1.0" standalone="no"?><!DOCTYPE svg PUBLIC "-//W3C//DTD SVG 1.1//EN" "http://www.w3.org/Graphics/SVG/1.1/DTD/svg11.dtd"><svg t="1736589890404" class="icon" viewBox="0 0 1024 1024" version="1.1" xmlns="http://www.w3.org/2000/svg" p-id="76080" xmlns:xlink="http://www.w3.org/1999/xlink" width="200" height="200"><path d="M512 512m-512 0a512 512 0 1 0 1024 0 512 512 0 1 0-1024 0Z" fill="#558CE4" p-id="76081"></path><path d="M412.16 601.6c-5.12 5.12-12.8 5.12-17.92 5.12l-158.72-48.64c-12.8-2.56-17.92-15.36-15.36-28.16 2.56-5.12 5.12-10.24 12.8-12.8l491.52-240.64c10.24-5.12 25.6 0 30.72 10.24 2.56 5.12 2.56 10.24 2.56 15.36L665.6 663.04c-2.56 12.8-15.36 20.48-28.16 15.36l-168.96-51.2c-5.12 0-7.68-5.12-7.68-7.68 0-2.56 0-5.12 2.56-5.12l204.8-230.4-256 217.6z m56.32 53.76l30.72 10.24c5.12 2.56 7.68 7.68 5.12 10.24v2.56l-30.72 46.08c-2.56 5.12-7.68 5.12-12.8 2.56-2.56-2.56-5.12-5.12-5.12-7.68v-56.32c0-5.12 5.12-7.68 7.68-7.68h5.12z" fill="#FFFFFF" p-id="76082"></path></svg>