<?xml version="1.0" standalone="no"?><!DOCTYPE svg PUBLIC "-//W3C//DTD SVG 1.1//EN" "http://www.w3.org/Graphics/SVG/1.1/DTD/svg11.dtd"><svg t="1737980873025" class="icon" viewBox="0 0 1024 1024" version="1.1" xmlns="http://www.w3.org/2000/svg" p-id="12712" xmlns:xlink="http://www.w3.org/1999/xlink" width="200" height="200"><path d="M511.431111 1.137778A510.293333 510.293333 0 0 0 1.137778 511.431111a510.293333 510.293333 0 0 0 510.293333 510.293333 510.293333 510.293333 0 0 0 0-1020.586666z m-32.199111 243.029333c0-10.695111 3.811556-19.911111 11.377778-27.648a36.750222 36.750222 0 0 1 27.249778-11.719111c11.093333 0 20.366222 3.925333 27.875555 11.719111a38.4 38.4 0 0 1 11.377778 27.648v233.472a37.148444 37.148444 0 0 1-11.377778 27.306667 37.944889 37.944889 0 0 1-27.875555 11.320889 37.148444 37.148444 0 0 1-27.306667-11.377778 37.319111 37.319111 0 0 1-11.320889-27.306667V244.224z m292.238222 377.173333a282.168889 282.168889 0 0 1-58.993778 87.324445c-24.803556 24.803556-53.873778 44.373333-87.324444 58.993778a264.647111 264.647111 0 0 1-107.178667 21.788444 265.671111 265.671111 0 0 1-106.666666-21.788444 286.264889 286.264889 0 0 1-87.552-58.993778A272.270222 272.270222 0 0 1 243.256889 514.275556c0-21.731556 2.503111-43.008 7.68-63.886223a286.151111 286.151111 0 0 1 21.788444-59.619555c9.386667-18.887111 21.105778-36.465778 34.929778-52.849778 32.426667-38.001778 65.422222-53.191111 75.889778-51.541333 10.410667 1.592889 18.944 6.769778 25.486222 15.36 6.542222 8.533333 9.102222 18.204444 7.395556 28.899555a38.684444 38.684444 0 0 1-15.303111 25.770667 191.146667 191.146667 0 0 0-59.221334 69.404444 195.299556 195.299556 0 0 0-20.650666 88.462223 195.584 195.584 0 0 0 57.457777 139.093333c17.92 17.863111 38.798222 31.971556 62.691556 42.439111 24.007111 10.410667 49.436444 15.701333 76.458667 15.701333 27.022222 0 52.565333-5.12 76.458666-15.701333a198.997333 198.997333 0 0 0 105.073778-105.073778c10.410667-23.893333 15.701333-49.436444 15.701333-76.458666a195.185778 195.185778 0 0 0-84.195555-160.995556 37.262222 37.262222 0 0 1-16.327111-25.144889 38.684444 38.684444 0 0 1 31.573333-45.283555 38.684444 38.684444 0 0 1 29.582222 6.371555c18.375111 13.084444 34.816 27.932444 49.152 44.544 14.392889 16.611556 26.737778 34.474667 36.864 53.703111a271.815111 271.815111 0 0 1 31.459556 126.407111v0.170667c0 38.343111-7.281778 74.069333-21.731556 107.406222z" fill="#80CA5D" p-id="12713"></path></svg>