<?xml version="1.0" standalone="no"?><!DOCTYPE svg PUBLIC "-//W3C//DTD SVG 1.1//EN" "http://www.w3.org/Graphics/SVG/1.1/DTD/svg11.dtd"><svg t="1736590202924" class="icon" viewBox="0 0 1024 1024" version="1.1" xmlns="http://www.w3.org/2000/svg" p-id="87744" xmlns:xlink="http://www.w3.org/1999/xlink" width="200" height="200"><path d="M512 512m-512 0a512 512 0 1 0 1024 0 512 512 0 1 0-1024 0Z" fill="#3889FF" p-id="87745"></path><path d="M740.394667 245.333333c21.12 0 38.272 17.152 38.272 38.272v456.789334a38.272 38.272 0 0 1-38.272 38.272H283.605333a38.272 38.272 0 0 1-38.272-38.272V283.605333c0-21.12 17.152-38.272 38.272-38.272h456.789334z m-1.237334 210.56H284.8v283.306667h454.4l-0.042667-283.306667z m-402.645333 80.768v46.293334H384.853333v-24.234667c0-12.074667 9.642667-21.845333 21.632-22.058667h4.224v96.597334c0 12.202667-9.813333 22.058667-21.973333 22.058666h-3.84v-49.066666H336.469333v27.008a22.016 22.016 0 0 1-21.632 22.058666h-4.224v-96.597333c0-12.16 9.813333-22.058667 21.973334-22.058667h3.882666z m178.133333 0v3.882667a19.413333 19.413333 0 0 1-19.413333 19.413333h-16.938667v73.301334a22.058667 22.058667 0 0 1-21.674666 22.058666h-4.266667v-95.36H416v-3.84c0-10.752 8.704-19.456 19.413333-19.456h79.232z m105.386667 0v3.882667a19.413333 19.413333 0 0 1-19.456 19.413333h-16.938667v73.301334a22.058667 22.058667 0 0 1-21.674666 22.058666h-4.266667v-95.36h-36.352v-3.84c0-10.752 8.704-19.456 19.413333-19.456h79.232z m54.528 0c28.757333 0 44.117333 12.970667 44.117333 37.888 0 25.173333-15.402667 38.229333-44.458666 38.229334h-23.594667v42.538666h-25.941333v-118.613333h49.877333z m-0.682667 22.656h-22.528v29.354667h22.528c7.168 0 12.373333-1.28 15.402667-3.541333 2.645333-2.176 4.010667-5.674667 4.053333-10.922667 0-5.76-1.450667-9.301333-4.181333-11.306667-2.986667-2.346667-8.021333-3.584-15.274667-3.584z m65.28-274.474666H284.842667l-0.042667 128.384h454.357333v-128.426667zM350.293333 327.637333a26.965333 26.965333 0 1 1 0 53.888 26.965333 26.965333 0 0 1 0-53.888z m80.896 0a26.965333 26.965333 0 1 1 0 53.888 26.965333 26.965333 0 0 1 0-53.888z m80.853334 0a26.965333 26.965333 0 1 1 0 53.888 26.965333 26.965333 0 0 1 0-53.888z" fill="#FFFFFF" p-id="87746"></path></svg>