<?xml version="1.0" standalone="no"?><!DOCTYPE svg PUBLIC "-//W3C//DTD SVG 1.1//EN" "http://www.w3.org/Graphics/SVG/1.1/DTD/svg11.dtd"><svg t="1736590358707" class="icon" viewBox="0 0 1024 1024" version="1.1" xmlns="http://www.w3.org/2000/svg" p-id="11557" xmlns:xlink="http://www.w3.org/1999/xlink" width="200" height="200"><path d="M512.068961 1023.9984a511.972961 511.972961 0 1 1 361.996882-149.976079A508.77313 508.77313 0 0 1 512.068961 1023.9984z m101.018665-424.873561V736.013609H752.056287v-136.856772h-50.55733v-99.546743h-170.486996v-62.236713h56.828999V288.037268h-151.575995v149.336113h56.828999v62.236713h-170.486997v99.546743H272.081636V736.013609h138.904664v-136.856772h-50.525332v-62.236713h303.119992v62.236713z m101.082662 99.546742h-63.196662v-62.236713h63.196662v62.204715z m-341.037989 0H309.999633v-62.236713h63.132666v62.204715z m176.85466-298.640228h-75.835995v-74.652057h75.835995v74.620059z" fill="#54DE82" p-id="11558"></path></svg>