<svg t="1738681182745" class="icon" viewBox="0 0 1024 1024" version="1.1" xmlns="http://www.w3.org/2000/svg" p-id="27008" width="200" height="200"><path d="M96 96m118.869333 0l594.261334 0q118.869333 0 118.869333 118.869333l0 594.261334q0 118.869333-118.869333 118.869333l-594.261334 0q-118.869333 0-118.869333-118.869333l0-594.261334q0-118.869333 118.869333-118.869333Z" fill="#FF9B31" p-id="27009"></path><path d="M825.569754 173.271412m22.627417 22.627417l0 0q22.627417 22.627417 0 45.254834l-588.312842 588.312842q-22.627417 22.627417-45.254834 0l0 0q-22.627417-22.627417 0-45.254834l588.312842-588.312842q22.627417-22.627417 45.254834 0Z" fill="#FFCD98" p-id="27010"></path><path d="M630.613333 585.386667l67.882667 67.84 67.882667-67.84a32 32 0 0 1 45.269333 45.226666l-67.925333 67.882667 67.925333 67.882667a32 32 0 0 1-45.226667 45.269333l-67.925333-67.925333-67.84 67.925333a32 32 0 0 1-45.269333-45.226667l67.84-67.925333-67.84-67.84a32 32 0 0 1 45.226666-45.269333zM518.144 201.386667a32 32 0 0 1 0 45.226666l-180.992 181.034667a31.829333 31.829333 0 0 1-16 8.661333l-4.394667 0.64h-4.48a31.872 31.872 0 0 1-20.394666-9.301333L201.386667 337.152A32 32 0 0 1 246.613333 291.84l67.882667 67.84 158.421333-158.336a32 32 0 0 1 45.226667 0z" fill="#FFF5EA" p-id="27011"></path></svg>