<?xml version="1.0" standalone="no"?><!DOCTYPE svg PUBLIC "-//W3C//DTD SVG 1.1//EN" "http://www.w3.org/Graphics/SVG/1.1/DTD/svg11.dtd"><svg t="1737947535972" class="icon" viewBox="0 0 1024 1024" version="1.1" xmlns="http://www.w3.org/2000/svg" p-id="1217" width="200" height="200"><path d="M512 192c212.064 0 320 107.936 320 320s-107.936 320-320 320S192 724.064 192 512 299.936 192 512 192z m-33.824 216.128a32 32 0 0 0-45.248 0l-67.904 67.872a32 32 0 0 0-7.296 33.92 32 32 0 0 0 7.296 33.952l67.904 67.904a32 32 0 1 0 45.248-45.28l-26.144-26.176h187.52a32 32 0 0 0 0-64h-184.32l22.944-22.944a32 32 0 0 0 0-45.248z" fill="#FA6400" p-id="1218"></path><path d="M512 32C191.936 32 32 191.936 32 512c0 320.064 159.936 480 480 480 320.064 0 480-159.936 480-480C992 191.936 832.064 32 512 32z m0 64c284.736 0 416 131.264 416 416s-131.264 416-416 416S96 796.736 96 512 227.264 96 512 96z" fill="#E02020" fill-opacity=".148" p-id="1219"></path></svg>