<svg t="1742870473930" class="icon" viewBox="0 0 1024 1024" version="1.1" xmlns="http://www.w3.org/2000/svg" p-id="8396" width="200" height="200"><path d="M511.904338 0.095662c129.575786-1.599701 299.144097 15.997011 393.52646 118.377878C1007.811665 212.855903 1022.208975 385.623617 1023.808676 512c1.599701 126.376383-15.997011 299.144097-118.377878 393.52646C811.048435 1007.907327 638.280721 1022.304637 511.904338 1023.904338c-127.976084 1.599701-299.144097-15.997011-393.52646-118.377878C15.997011 811.144097 0 638.376383 0 512c0-126.376383 15.997011-299.144097 118.377878-393.52646C212.76024 16.092673 385.527954-1.504039 511.904338 0.095662z" fill="#FF647F" p-id="8397"></path><path d="M527.901348 272.044842c9.598206 0 15.997011 6.398804 15.997011 15.99701v223.958148c0 9.598206-6.398804 15.997011-15.997011 15.997011H303.943201c-9.598206 0-15.997011-6.398804-15.997011-15.997011s6.398804-15.997011 15.997011-15.997011h207.961137V288.041852c0-9.598206 7.998505-15.997011 15.99701-15.99701z m255.952169 239.955158c-3.199402-140.773693-115.178476-255.952169-255.952169-255.952169s-255.952169 115.178476-255.952169 255.952169 115.178476 255.952169 255.952169 255.952169c20.796114 0 15.997011 31.994021 0 31.994021-158.370405 0-287.94619-129.575786-287.94619-287.94619s129.575786-287.94619 287.94619-287.94619 287.94619 129.575786 287.94619 287.94619c0 23.995516-30.39432 33.593722-31.994021 0z m-95.982063 15.997011c79.985053 0 143.973095 63.988042 143.973095 143.973095s-63.988042 143.973095-143.973095 143.973095-143.973095-63.988042-143.973095-143.973095 63.988042-143.973095 143.973095-143.973095z m0 255.952168c62.388341 0 111.979074-49.590733 111.979074-111.979073s-49.590733-111.979074-111.979074-111.979074-111.979074 49.590733-111.979074 111.979074 49.590733 111.979074 111.979074 111.979073z m0-207.961137c9.598206 0 15.997011 6.398804 15.997011 15.997011v111.979074c0 9.598206-6.398804 15.997011-15.997011 15.99701s-15.997011-6.398804-15.997011-15.99701v-111.979074c0-9.598206 7.998505-15.997011 15.997011-15.997011z m0 159.970106c9.598206 0 15.997011 6.398804 15.997011 15.99701s-6.398804 15.997011-15.997011 15.997011-15.997011-6.398804-15.997011-15.997011 7.998505-15.997011 15.997011-15.99701z" fill="#FEFEFE" p-id="8398"></path></svg>