<svg t="1738502177781" class="icon" viewBox="0 0 1088 1024" version="1.1" xmlns="http://www.w3.org/2000/svg" p-id="14567" width="200" height="200"><path d="M264.512 55.936C340.096 30.784 441.472 16 551.232 16c109.76 0 211.136 14.72 286.72 39.936 37.504 12.544 71.36 28.48 96.768 48.512 24.96 19.648 48.512 48.896 48.512 87.552v198.656h-96V308.48c-15.36 7.296-31.936 13.824-49.28 19.648-75.584 25.152-176.96 39.936-286.72 39.936-109.76 0-211.136-14.72-286.72-39.936a428.8 428.8 0 0 1-49.28-19.648v473.344c0 19.392 18.816 51.968 84.672 82.56 61.824 28.608 150.656 47.68 251.328 47.68s189.44-19.008 251.328-47.744c65.792-30.528 84.672-63.104 84.672-82.496v-7.04h96v7.04c0 79.104-67.136 135.68-140.288 169.6-77.12 35.84-180.288 56.64-291.712 56.64-111.36 0-214.592-20.864-291.776-56.64-73.152-33.92-140.224-90.496-140.224-169.6V192c0-38.656 23.552-67.84 48.448-87.552 25.472-20.032 59.264-35.968 96.832-48.512zM215.552 192a41.408 41.408 0 0 0 11.52 12.16c13.44 10.56 35.84 22.144 67.84 32.832 63.36 21.12 153.984 35.008 256.32 35.008 102.272 0 192.96-13.888 256.32-35.008 32-10.688 54.4-22.272 67.84-32.896a41.344 41.344 0 0 0 11.52-12.096 41.344 41.344 0 0 0-11.52-12.16c-13.44-10.56-35.84-22.144-67.84-32.832-63.36-21.12-154.048-35.008-256.32-35.008-102.336 0-192.96 13.888-256.384 35.008-31.936 10.688-54.336 22.272-67.712 32.896A41.408 41.408 0 0 0 215.552 192z" fill="#50B43C" p-id="14568"></path><path d="M443.392 631.872l-4.288-10.688H371.584l4.096 20.48c5.184 25.6 18.624 45.952 40.256 59.648a117.12 117.12 0 0 0 63.936 17.152c30.976 0 57.6-6.336 77.76-21.12 21.952-15.872 32.64-39.104 32.896-67.2 0.256-22.272-6.4-41.856-21.504-56.448-14.016-13.76-35.648-23.424-62.272-30.4l-25.216-6.784c-16.384-4.416-24.96-8.64-28.48-11.648-1.984-1.664-3.392-3.84-3.2-8.96v-0.384c0.128-4.672 1.856-8.704 7.68-12.992 6.08-4.352 14.656-7.168 26.944-7.168 9.984 0 17.344 2.368 23.04 6.4a30.72 30.72 0 0 1 11.072 14.72l4.16 11.2h66.816l-3.2-19.84a85.376 85.376 0 0 0-33.728-56.192c-18.816-14.272-41.472-20.992-66.944-20.992-28.608 0-53.632 6.976-73.536 22.4H412.16a78.592 78.592 0 0 0-31.488 62.4v0.128c-0.256 21.568 5.632 40.704 19.392 55.296l0.128 0.128c13.056 13.632 32.832 22.656 56.768 28.8l31.36 7.936c15.68 4.096 24.256 8.576 28.096 12.096 3.2 2.88 4.992 6.592 4.928 12.864-0.128 5.888-2.24 9.856-7.68 13.44-6.4 4.16-16.128 7.04-30.656 7.04a52.608 52.608 0 0 1-26.56-5.76 30.08 30.08 0 0 1-12.992-15.552zM638.016 679.68c23.872 26.24 56.32 38.784 95.104 38.784 12.224 0 23.936-1.216 34.944-3.776l11.008 22.592h77.952l-29.696-55.808c24.448-26.048 35.584-62.592 35.584-106.88 0-41.984-11.008-77.376-34.816-104.064-24-26.88-56.32-39.872-94.976-39.872s-71.04 12.992-95.168 39.808c-24.064 26.688-35.2 62.08-35.2 104.128 0 42.688 11.072 78.464 35.2 105.024z m51.712-164.8c10.176-12.352 23.936-18.944 43.392-18.944 19.52 0 33.28 6.592 43.392 18.944 10.432 12.8 16.768 32 16.768 59.712 0 27.584-5.824 46.464-15.232 58.88-9.344 12.16-23.168 19.136-44.608 19.136-20.48 0-34.368-6.528-44.16-18.24-10.24-12.16-16.64-31.36-16.64-59.776 0-27.456 6.4-46.656 17.088-59.712zM1075.584 713.216h-189.312V435.264h68.352v211.456h120.96v66.56z" fill="#50B43C" p-id="14569"></path></svg>