<?xml version="1.0" standalone="no"?><!DOCTYPE svg PUBLIC "-//W3C//DTD SVG 1.1//EN" "http://www.w3.org/Graphics/SVG/1.1/DTD/svg11.dtd"><svg t="1736590058139" class="icon" viewBox="0 0 1024 1024" version="1.1" xmlns="http://www.w3.org/2000/svg" p-id="83127" xmlns:xlink="http://www.w3.org/1999/xlink" width="200" height="200"><path d="M512 1024C229.237622 1024 0 794.762378 0 512S229.237622 0 512 0 1024 229.237622 1024 512 794.762378 1024 512 1024z m68.774054-757.621622h-114.909405c-14.778811 0.691892-26.125838 12.426378-25.406271 26.153514-0.719568 13.754811 10.627459 25.433946 25.433946 26.125838h115.988757c14.502054-0.996324 25.461622-12.620108 24.714378-26.125838a23.801081 23.801081 0 0 0-7.001945-18.099892 27.786378 27.786378 0 0 0-18.81946-8.053622z m125.619892 30.526271h-57.510054c0.581189 2.850595 0.885622 5.728865 0.885622 8.63481 0 21.974486-17.186595 43.644541-37.583568 43.644541h-176.211027c-21.863784 0-38.662919-21.670054-38.662919-43.644541 0.055351-2.905946 0.359784-5.811892 0.968649-8.63481h-58.478703c-46.661189 0-58.17427 24.631351-58.201946 60.056216v351.481081c0.332108 38.08173 16.633081 59.447351 61.993514 59.447351h359.202594c45.222054 0 67.251892-16.688432 67.251892-59.419675V357.016216c0-35.507892-20.618378-60.056216-63.737081-60.056216l0.083027-0.083027zM409.544649 546.871351h-0.027676a19.566703 19.566703 0 0 1 0.276757-28.035459 19.954162 19.954162 0 0 1 28.063135 0l65.037838 64.927135 128.774919-128.415135a19.760432 19.760432 0 0 1 28.007783 0 19.760432 19.760432 0 0 1 0 28.28454l-142.751135 142.52973a20.396973 20.396973 0 0 1-28.090811 0l-79.29081-79.290811z" fill="#00D399" p-id="83128"></path></svg>