<svg t="1738503503507" class="icon" viewBox="0 0 1024 1024" version="1.1" xmlns="http://www.w3.org/2000/svg" p-id="25461" width="200" height="200"><path d="M1024 512c0 282.752-229.248 512-512 512S0 794.752 0 512 229.248 0 512 0s512 229.248 512 512z" fill="#28C76F" p-id="25462"></path><path d="M672 778.656a80 80 0 0 0 80-80V325.344a80 80 0 0 0-80-80H352a80 80 0 0 0-80 80v373.312a80 80 0 0 0 80 80h320zM325.344 325.344A26.656 26.656 0 0 1 352 298.656h320a26.656 26.656 0 0 1 26.656 26.688v256.032l-373.312 46.4V325.376z m373.312 254.848v118.464a26.656 26.656 0 0 1-26.656 26.688H352a26.656 26.656 0 0 1-26.656-26.688v-69.056l373.312-49.408zM608 512a32 32 0 0 1 0 64H416a32 32 0 0 1 0-64h192z m-64-128a32 32 0 0 1 0 64H416a32 32 0 1 1 0-64h128z" fill="#FFFFFF" p-id="25463"></path></svg>