<?xml version="1.0" standalone="no"?><!DOCTYPE svg PUBLIC "-//W3C//DTD SVG 1.1//EN" "http://www.w3.org/Graphics/SVG/1.1/DTD/svg11.dtd"><svg t="1737707992932" class="icon" viewBox="0 0 1024 1024" version="1.1" xmlns="http://www.w3.org/2000/svg" p-id="25346" xmlns:xlink="http://www.w3.org/1999/xlink" width="200" height="200"><path d="M0 512C0 229.216 229.216 0 512 0s512 229.216 512 512-229.216 512-512 512S0 794.784 0 512z" fill="#FFFFFF" p-id="25347"></path><path d="M0 512C0 229.216 229.216 0 512 0s512 229.216 512 512-229.216 512-512 512S0 794.784 0 512z" fill="#FF7A4F" p-id="25348"></path><path d="M512 224a288.512 288.512 0 0 1 288 288.064 287.936 287.936 0 0 1-84.416 203.776A286.496 286.496 0 0 1 512 799.936a286.176 286.176 0 0 1-203.584-84.096A287.936 287.936 0 0 1 224 512.064 288.512 288.512 0 0 1 512 224z m-13.216 531.456v-93.12c-25.6 1.056-50.88 6.24-74.816 15.424-3.392 1.056-6.72 2.304-9.92 3.776 2.048 4.096 3.936 8.192 6.144 12.128 14.784 26.4 32.064 46.848 51.552 58.656 8.96 1.6 17.984 2.656 27.04 3.136z m185.504-415.552a74.336 74.336 0 0 0-6.112-5.824c-10.688 8-22.016 15.136-33.792 21.376 15.712 41.024 25.44 90.432 27.04 143.392h83.936a243.2 243.2 0 0 0-71.04-158.944z m-27.04-23.424a240.672 240.672 0 0 0-49.664-28.64c7.2 9.472 13.696 19.456 19.488 29.888 2.208 4.096 4.544 8.8 6.912 13.504 7.872-4.704 15.712-9.6 23.264-14.752z m-105.024-44.832a308.256 308.256 0 0 0-27.04-2.976v93.408a248.48 248.48 0 0 0 84.736-19.36c-1.696-4.256-4.064-8.32-6.08-12.096-14.496-26.752-32.256-46.88-51.616-58.976z m-53.44-2.976c-9.088 0.64-18.24 1.6-27.04 2.976-19.52 12.096-36.8 32.224-51.552 58.976-2.208 3.776-4.096 7.84-6.272 12.096a248.576 248.576 0 0 0 84.896 19.328V268.704z m-82.368 19.168a240.32 240.32 0 0 0-49.664 28.64c7.552 5.184 15.392 10.048 23.424 14.752a217.28 217.28 0 0 1 26.24-43.392z m-70.72 46.208a243.2 243.2 0 0 0-77.024 164.8h83.936c1.568-52.96 11.296-102.368 26.88-143.36a277.44 277.44 0 0 1-33.824-21.44z m-77.056 191.36a243.84 243.84 0 0 0 71.04 158.976l5.984 5.952c10.656-8.128 21.984-15.36 33.792-21.664-15.552-41.216-25.28-90.24-26.88-143.264H268.672z m98.112 182.24c15.36 11.488 32.032 21.12 49.664 28.64a208.864 208.864 0 0 1-19.52-29.888 203.488 203.488 0 0 1-6.72-13.216 241.216 241.216 0 0 0-23.424 14.464z m158.464 47.808c9.056-0.48 18.08-1.536 27.008-3.136 19.36-11.808 37.12-32.256 51.584-58.656 2.048-3.936 4.384-8 6.112-12.128a78.144 78.144 0 0 0-9.92-3.776 234.88 234.88 0 0 0-74.784-15.392v93.088z m82.368-19.2a241.056 241.056 0 0 0 49.664-28.608 226.784 226.784 0 0 0-23.264-14.464c-2.368 4.416-4.704 8.96-6.912 13.216a240.96 240.96 0 0 1-19.488 29.888z m70.592-45.92l6.112-5.952a243.84 243.84 0 0 0 71.04-158.976h-83.904c-1.6 52.992-11.328 102.08-27.04 143.264 11.84 6.208 23.168 13.44 33.792 21.664z m-57.856-323.392c-3.616 1.6-7.296 3.008-11.008 4.224a266.912 266.912 0 0 1-84.096 17.28v110.4h119.456c-1.408-48.896-10.048-94.176-24.352-131.904z m-121.536 21.536a264.256 264.256 0 0 1-83.936-17.28 108.672 108.672 0 0 1-11.328-4.256c-14.144 37.728-22.944 83.008-24.384 131.904h119.68v-110.4z m0 247.168v-110.24h-119.648c1.44 48.768 10.24 93.856 24.384 131.776 3.776-1.408 7.552-2.976 11.328-4.256a268.64 268.64 0 0 1 83.936-17.28z m26.432 0a269.6 269.6 0 0 1 83.936 17.28c3.776 1.28 7.36 2.848 11.168 4.256 14.304-37.92 22.944-83.008 24.352-131.776h-119.456v110.24z" fill="#FFFFFF" p-id="25349"></path></svg>