<?xml version="1.0" standalone="no"?><!DOCTYPE svg PUBLIC "-//W3C//DTD SVG 1.1//EN" "http://www.w3.org/Graphics/SVG/1.1/DTD/svg11.dtd"><svg t="1748855765188" class="icon" viewBox="0 0 1024 1024" version="1.1" xmlns="http://www.w3.org/2000/svg" p-id="6407" xmlns:xlink="http://www.w3.org/1999/xlink" width="200" height="200"><path d="M333.312 683.6736c16.0768 98.4064 46.2848 179.3024 87.2448 227.6352a410.2656 410.2656 0 0 1-280.576-227.6352H333.312z m550.7072 0a410.0096 410.0096 0 0 1-62.7712 96.9216l-10.5472 4.8128a51.2 51.2 0 0 0-25.2928 25.2928l-4.8128 10.5472a409.2928 409.2928 0 0 1-129.28 76.032l-13.1584-39.424c23.5008-46.3872 41.4208-106.0864 52.5824-174.1824h193.28z m-384.9216 0l55.7568 167.168c-14.0288 20.7872-28.7232 32.3584-42.8544 32.3584-37.2736 0-78.7456-80.5888-100.3008-199.5264h87.3984z m113.2032 0c-3.7376 20.5824-8.0896 40.0384-12.8512 58.112l-19.4048-58.112h32.256z m11.4176-256c1.4848 17.7664 2.56 36.096 3.072 54.8352a128.0512 128.0512 0 0 0-145.5616 124.416H401.2032a1012.8896 1012.8896 0 0 1-0.9216-179.3024h223.4368z m-30.72 132.9664a51.2 51.2 0 0 1 32.4096 0l0.6144 0.256a996.352 996.352 0 0 1-3.2256 45.9776H558.08a51.2 51.2 0 0 1 34.9696-46.2336z m108.6464 25.3952l62.3104 20.7872h-63.8464l1.536-20.7872zM323.072 427.6224a1148.16 1148.16 0 0 0 0.8192 179.2h-210.432a410.7264 410.7264 0 0 1-2.3552-179.2h211.968z m589.824 0a411.3408 411.3408 0 0 1 3.584 149.0944L704 505.856l-0.3072-22.4768c-0.4608-18.944-1.3312-37.5296-2.7136-55.7568h211.968zM603.4432 112.64a410.4192 410.4192 0 0 1 285.184 238.1824h-196.2496c-15.36-101.376-45.5168-185.2416-86.784-235.52l-2.1504-2.6624z m-182.8864 0c-42.3424 50.0224-73.2672 135.0144-88.9344 238.2336l-196.3008-0.0512a410.5216 410.5216 0 0 1 277.6576-236.3904l7.5776-1.792zM512 140.8c38.4 0 81.152 85.3504 102.144 210.0224h-204.288C430.848 226.1504 473.6 140.8 512 140.8z" fill="#0A52FA" opacity=".5" p-id="6408"></path><path d="M625.408 560.64l274.944 91.648a48.384 48.384 0 0 1 4.8128 89.9584l-94.464 43.1616a51.2 51.2 0 0 0-25.2928 25.2928l-43.1616 94.464a48.384 48.384 0 0 1-89.9072-4.7616l-91.648-274.944a51.2 51.2 0 0 1 64.7168-64.8192z" fill="#0A52FA" p-id="6409"></path></svg>