<svg t="1739990056276" class="icon" viewBox="0 0 1024 1024" version="1.1" xmlns="http://www.w3.org/2000/svg" p-id="2549" width="200" height="200"><path d="M0 0h1024v1024H0z" fill="#FFFFFF" fill-opacity="0" p-id="2550"></path><path d="M213.333333 85.333333h469.333334l213.333333 215.296V853.333333a85.333333 85.333333 0 0 1-85.333333 85.333334H213.333333a85.333333 85.333333 0 0 1-85.333333-85.333334V170.666667a85.333333 85.333333 0 0 1 85.333333-85.333334z" fill="#FF7878" p-id="2551"></path><path d="M682.666667 85.333333v189.696c0 13.056 10.709333 23.637333 23.893333 23.637334H896l-213.333333-213.333334z" fill="#D15050" p-id="2552"></path><path d="M682.666667 287.445333a32.426667 32.426667 0 0 0-10.624-24.192 27.946667 27.946667 0 0 0-24.149334-6.698666l-276.138666 55.466666c-13.909333 2.773333-23.936 15.786667-23.936 30.933334l0.170666 283.008a64.213333 64.213333 0 0 0-23.637333-4.48c-37.76 0-68.352 32.810667-68.352 73.258666C256 735.189333 286.592 768 324.352 768c37.76 0 68.352-32.810667 68.352-73.258667v-267.008l245.248-49.28v192a64.213333 64.213333 0 0 0-23.637333-4.48c-37.76 0-68.352 32.853333-68.352 73.258667 0 40.448 30.592 73.258667 68.352 73.258667 37.76 0 68.352-32.810667 68.352-73.258667V287.445333z" fill="#EF5252" p-id="2553"></path><path d="M682.666667 287.445333a32.426667 32.426667 0 0 0-10.624-24.192 27.946667 27.946667 0 0 0-24.149334-6.698666l-276.138666 55.466666c-13.909333 2.773333-23.936 15.786667-23.936 30.933334l0.170666 283.008a64.213333 64.213333 0 0 0-23.637333-4.48c-37.76 0-68.352 32.810667-68.352 73.258666C256 735.189333 286.592 768 324.352 768c37.76 0 68.352-32.810667 68.352-73.258667v-267.008l245.248-49.28v192a64.213333 64.213333 0 0 0-23.637333-4.48c-37.76 0-68.352 32.853333-68.352 73.258667 0 40.448 30.592 73.258667 68.352 73.258667 37.76 0 68.352-32.810667 68.352-73.258667V287.445333z" fill="#FFFFFF" p-id="2554"></path></svg>