<svg xmlns="http://www.w3.org/2000/svg" width="24" height="24" fill="none" viewBox="0 0 24 24"><path fill="#336DF4" d="M3 3a2 2 0 0 1 2-2h9.586a1 1 0 0 1 .707.293l5.414 5.414a1 1 0 0 1 .293.707V21a2 2 0 0 1-2 2H5a2 2 0 0 1-2-2V3Z" style="fill: color(display-p3 0.2 0.4275 0.9569); fill-opacity: 1;"></path><path fill="#336DF4" d="M3 3a2 2 0 0 1 2-2h9.586a1 1 0 0 1 .707.293l5.414 5.414a1 1 0 0 1 .293.707V21a2 2 0 0 1-2 2H5a2 2 0 0 1-2-2V3Z" style="fill: color(display-p3 0.2 0.4275 0.9569); fill-opacity: 1;"></path><path fill="#0442D2" d="M15 1.483a.2.2 0 0 1 .341-.142L20.66 6.66a.2.2 0 0 1-.142.341H17a2 2 0 0 1-2-2V1.483Z" opacity="0.7" style="fill: color(display-p3 0.0157 0.2588 0.8235); fill-opacity: 1;"></path><path fill="#fff" d="m12.004 12.25-1.474 5.456a.152.152 0 0 1-.147.112h-.868a.152.152 0 0 1-.146-.11l-2-7.06a.152.152 0 0 1 .146-.193h.871c.07 0 .13.046.147.113l1.423 5.504 1.478-5.505a.152.152 0 0 1 .146-.112h.849c.069 0 .129.046.147.112l1.468 5.503 1.422-5.502a.152.152 0 0 1 .147-.113h.871a.152.152 0 0 1 .146.193l-2 7.06a.152.152 0 0 1-.145.11h-.869a.152.152 0 0 1-.146-.112l-1.466-5.456Z" style="fill: rgb(255, 255, 255); fill-opacity: 1;"></path></svg>