<svg t="1739990214725" class="icon" viewBox="0 0 1024 1024" version="1.1" xmlns="http://www.w3.org/2000/svg" p-id="3576" width="200" height="200"><path d="M0 0h1024v1024H0z" fill="#D8D8D8" fill-opacity="0" p-id="3577"></path><path d="M885.333333 179.2H405.333333c0-28.288-23.893333-51.2-53.333333-51.2h-213.333333C109.226667 128 85.333333 150.912 85.333333 179.2v153.6C85.333333 361.088 109.226667 384 138.666667 384h746.666666C914.773333 384 938.666667 361.088 938.666667 332.8V230.4c0-28.288-23.893333-51.2-53.333334-51.2z" fill="#CCA352" p-id="3578"></path><path d="M804.565333 213.333333H219.434667C192.512 213.333333 170.666667 238.805333 170.666667 270.208v56.874667C170.666667 358.528 192.512 384 219.434667 384h585.130666C831.488 384 853.333333 358.528 853.333333 327.082667V270.208C853.333333 238.805333 831.488 213.333333 804.565333 213.333333z" fill="#FFFFFF" p-id="3579"></path><path d="M885.333333 298.666667H138.666667C109.226667 298.666667 85.333333 320.938667 85.333333 348.458667v497.749333C85.333333 873.685333 109.226667 896 138.666667 896h746.666666c29.44 0 53.333333-22.314667 53.333334-49.792V348.416C938.666667 320.938667 914.773333 298.666667 885.333333 298.666667z" fill="#FFCC66" p-id="3580"></path></svg>