<svg t="1739989942282" class="icon" viewBox="0 0 1024 1024" version="1.1" xmlns="http://www.w3.org/2000/svg" p-id="1344" width="200" height="200"><path d="M0 0h1024v1024H0z" fill="#D8D8D8" fill-opacity="0" p-id="1345"></path><path d="M341.333333 85.333333h384.128L938.666667 300.629333V853.333333a85.333333 85.333333 0 0 1-85.333334 85.333334H341.333333a85.333333 85.333333 0 0 1-85.333333-85.333334V170.666667a85.333333 85.333333 0 0 1 85.333333-85.333334z" fill="#EEEEEE" p-id="1346"></path><path d="M725.333333 85.333333v189.696c0 13.056 10.709333 23.637333 23.893334 23.637334H938.666667l-213.333334-213.333334z" fill="#478EB9" p-id="1347"></path><path d="M85.333333 341.333333m42.666667 0l682.666667 0q42.666667 0 42.666666 42.666667l0 384q0 42.666667-42.666666 42.666667l-682.666667 0q-42.666667 0-42.666667-42.666667l0-384q0-42.666667 42.666667-42.666667Z" fill="#478EB9" p-id="1348"></path><path d="M451.2 420.693333v42.666667h99.84V725.333333h49.92v-261.973333h99.84v-42.666667z" fill="#EEEEEE" p-id="1349"></path></svg>