<svg class="icon-icon" width="1em" height="1em" viewBox="0 0 24 24" fill="currentColor" xmlns="http://www.w3.org/2000/svg"><path d="M1.7182 4.04052C2.14397 3.91547 2.60122 4.08596 2.84118 4.45923L10 15.5952V4.99999C10 4.44771 10.4477 3.99999 11 3.99999C11.5523 3.99999 12 4.44771 12 4.99999V19C12 19.4437 11.7076 19.8344 11.2818 19.9595C10.856 20.0845 10.3988 19.914 10.1588 19.5407L3 8.4048V19C3 19.5523 2.55228 20 2 20C1.44772 20 1 19.5523 1 19V4.99999C1 4.55624 1.29243 4.16556 1.7182 4.04052Z"></path><path fill-rule="evenodd" clip-rule="evenodd" d="M18.25 16C20.8734 16 23 13.4256 23 10.25C23 7.07435 20.8734 4.49999 18.25 4.49999C15.6266 4.49999 13.5 7.07435 13.5 10.25C13.5 13.4256 15.6266 16 18.25 16ZM18.25 14C19.4282 14 21 12.6956 21 10.25C21 7.80439 19.4282 6.49999 18.25 6.49999C17.0718 6.49999 15.5 7.80439 15.5 10.25C15.5 12.6956 17.0718 14 18.25 14Z"></path><path d="M14.5 17.5C13.9477 17.5 13.5 17.9477 13.5 18.5C13.5 19.0523 13.9477 19.5 14.5 19.5H22C22.5523 19.5 23 19.0523 23 18.5C23 17.9477 22.5523 17.5 22 17.5H14.5Z"></path></svg>