<svg class="icon-icon" width="1em" height="1em" viewBox="0 0 24 24" fill="currentColor" xmlns="http://www.w3.org/2000/svg"><path d="M2.046 18.884C2.838 19.4707 3.85 19.764 5.082 19.764 6.446 19.764 7.524 19.346 8.316 18.51 8.712 18.0993 9.00534 17.6007 9.196 17.014 9.40134 16.4127 9.504 15.7307 9.504 14.968 9.504 14.2493 9.394 13.626 9.174 13.098 8.954 12.5993 8.63867 12.1667 8.228 11.8 7.876 11.5067 7.436 11.2353 6.908 10.986 6.43867 10.7513 5.91067 10.546 5.324 10.37 4.62 10.1647 4.114 9.91533 3.806 9.622 3.61534 9.46067 3.476 9.248 3.388 8.984 3.27067 8.73466 3.212 8.434 3.212 8.082 3.212 7.73 3.256 7.422 3.344 7.158 3.432 6.894 3.564 6.68133 3.74 6.52 4.06267 6.19733 4.52467 6.036 5.126 6.036 5.71267 6.036 6.19667 6.16066 6.578 6.41 6.78094 6.54529 6.95883 6.72487 7.11169 6.94874 7.35939 7.31151 7.83374 7.5065 8.21542 7.28909L8.53026 7.10975C8.93327 6.88019 9.13735 6.39737 8.94007 5.9776 8.64461 5.34892 8.23859 4.86239 7.722 4.518 7.04734 4.06333 6.18934 3.836 5.148 3.836 3.90134 3.836 2.91134 4.19533 2.178 4.914 1.782 5.29533 1.48867 5.76466 1.298 6.322 1.09267 6.90867.990003 7.58333.990003 8.346.990003 8.99133 1.09267 9.57066 1.298 10.084 1.474 10.5387 1.738 10.942 2.09 11.294 2.41267 11.602 2.816 11.8807 3.3 12.13 3.72534 12.35 4.20934 12.548 4.752 12.724 5.544 12.9733 6.13067 13.23 6.512 13.494 6.74667 13.67 6.93 13.89 7.062 14.154 7.194 14.4473 7.26 14.7993 7.26 15.21 7.26 15.6207 7.216 15.9727 7.128 16.266 7.04 16.5593 6.90067 16.8013 6.71 16.992 6.358 17.3733 5.82267 17.564 5.104 17.564 4.37067 17.5493 3.784 17.3953 3.344 17.102 3.06912 16.9004 2.83718 16.6158 2.64816 16.2483 2.45307 15.8689 2.00653 15.6554 1.61878 15.8333L1.22165 16.0155C.791765 16.2128.547189 16.6895.721259 17.1293 1.01 17.8588 1.45158 18.4437 2.046 18.884zM13.8798 19.764C13.4251 19.764 13.0145 19.6833 12.6478 19.522 12.5011 19.4487 12.3618 19.368 12.2298 19.28 11.9218 19.0747 11.6871 18.796 11.5258 18.444 11.3938 18.18 11.2985 17.8573 11.2398 17.476 11.1811 17.0947 11.1518 16.6473 11.1518 16.134V9.424H10.6568C10.1647 9.424 9.76579 9.02508 9.76579 8.533 9.76579 8.04091 10.1647 7.642 10.6568 7.642H11.1518V5.364C11.1518 4.81171 11.5995 4.364 12.1518 4.364H12.2418C12.7941 4.364 13.2418 4.81171 13.2418 5.364V7.642H14.9248C15.4169 7.642 15.8158 8.04091 15.8158 8.533 15.8158 9.02508 15.4169 9.424 14.9248 9.424H13.2418V16.068C13.2418 16.3613 13.2638 16.618 13.3078 16.838 13.3518 17.0433 13.4178 17.212 13.5058 17.344 13.6818 17.5933 13.9678 17.718 14.3638 17.718 14.5691 17.718 14.7598 17.6813 14.9358 17.608 15.1597 17.5062 15.4682 17.5524 15.5698 17.7764L15.8746 18.4489C16.012 18.752 15.9578 19.1194 15.6746 19.2942 15.5028 19.4002 15.3079 19.4908 15.0898 19.566 14.7085 19.698 14.3051 19.764 13.8798 19.764zM18.122 19.5C17.5697 19.5 17.122 19.0523 17.122 18.5V8.642C17.122 8.08971 17.5697 7.642 18.122 7.642H18.212C18.7643 7.642 19.212 8.08971 19.212 8.642V9.182C19.4907 8.58066 19.8207 8.13333 20.202 7.84 20.5833 7.54667 21.016 7.40733 21.5 7.422 21.7187 7.422 21.9204 7.45254 22.1052 7.51361 22.4672 7.63328 22.5838 8.05195 22.4887 8.4212L22.2583 9.31622C22.1695 9.66108 21.7496 9.79374 21.3992 9.73054 21.3232 9.71685 21.2468 9.71 21.17 9.71 20.8327 9.71 20.532 9.81266 20.268 10.018 20.092 10.15 19.938 10.326 19.806 10.546 19.4247 11.1033 19.234 11.9247 19.234 13.01V18.5C19.234 19.0523 18.7863 19.5 18.234 19.5H18.122zM20.925 19.236C21.233 19.5587 21.5923 19.72 22.003 19.72 22.4137 19.72 22.7803 19.5587 23.103 19.236 23.3963 18.9427 23.543 18.5833 23.543 18.158 23.543 17.7327 23.3963 17.366 23.103 17.058 22.795 16.7353 22.4283 16.574 22.003 16.574 21.5923 16.574 21.233 16.7353 20.925 17.058 20.6023 17.366 20.441 17.7327 20.441 18.158 20.441 18.5687 20.6023 18.928 20.925 19.236z"></path></svg>